ISO-10303-21;
HEADER;
FILE_DESCRIPTION(('FreeCAD Model'),'2;1');
FILE_NAME('Open CASCADE Shape Model','2026-09-20T21:03:53',('Author'),(
    ''),'Open CASCADE STEP processor 7.8','FreeCAD','Unknown');
FILE_SCHEMA(('AUTOMOTIVE_DESIGN { 1 0 10303 214 1 1 1 1 }'));
ENDSEC;
DATA;
#1 = APPLICATION_PROTOCOL_DEFINITION('international standard',
  'automotive_design',2000,#2);
#2 = APPLICATION_CONTEXT(
  'core data for automotive mechanical design processes');
#3 = SHAPE_DEFINITION_REPRESENTATION(#4,#10);
#4 = PRODUCT_DEFINITION_SHAPE('','',#5);
#5 = PRODUCT_DEFINITION('design','',#6,#9);
#6 = PRODUCT_DEFINITION_FORMATION('','',#7);
#7 = PRODUCT('COMPOUND005','COMPOUND005','',(#8));
#8 = PRODUCT_CONTEXT('',#2,'mechanical');
#9 = PRODUCT_DEFINITION_CONTEXT('part definition',#2,'design');
#10 = SHAPE_REPRESENTATION('',(#11,#15,#19,#23,#27,#31),#35);
#11 = AXIS2_PLACEMENT_3D('',#12,#13,#14);
#12 = CARTESIAN_POINT('',(0.,0.,0.));
#13 = DIRECTION('',(0.,0.,1.));
#14 = DIRECTION('',(1.,0.,-0.));
#15 = AXIS2_PLACEMENT_3D('',#16,#17,#18);
#16 = CARTESIAN_POINT('',(0.,0.,0.));
#17 = DIRECTION('',(0.,0.,1.));
#18 = DIRECTION('',(1.,0.,-0.));
#19 = AXIS2_PLACEMENT_3D('',#20,#21,#22);
#20 = CARTESIAN_POINT('',(0.,0.,0.));
#21 = DIRECTION('',(0.,0.,1.));
#22 = DIRECTION('',(1.,0.,-0.));
#23 = AXIS2_PLACEMENT_3D('',#24,#25,#26);
#24 = CARTESIAN_POINT('',(0.,0.,0.));
#25 = DIRECTION('',(0.,0.,1.));
#26 = DIRECTION('',(1.,0.,-0.));
#27 = AXIS2_PLACEMENT_3D('',#28,#29,#30);
#28 = CARTESIAN_POINT('',(0.,0.,0.));
#29 = DIRECTION('',(0.,0.,1.));
#30 = DIRECTION('',(1.,0.,-0.));
#31 = AXIS2_PLACEMENT_3D('',#32,#33,#34);
#32 = CARTESIAN_POINT('',(0.,0.,0.));
#33 = DIRECTION('',(0.,0.,1.));
#34 = DIRECTION('',(1.,0.,-0.));
#35 = ( GEOMETRIC_REPRESENTATION_CONTEXT(3) 
GLOBAL_UNCERTAINTY_ASSIGNED_CONTEXT((#39)) GLOBAL_UNIT_ASSIGNED_CONTEXT(
(#36,#37,#38)) REPRESENTATION_CONTEXT('Context #1',
  '3D Context with UNIT and UNCERTAINTY') );
#36 = ( LENGTH_UNIT() NAMED_UNIT(*) SI_UNIT(.MILLI.,.METRE.) );
#37 = ( NAMED_UNIT(*) PLANE_ANGLE_UNIT() SI_UNIT($,.RADIAN.) );
#38 = ( NAMED_UNIT(*) SI_UNIT($,.STERADIAN.) SOLID_ANGLE_UNIT() );
#39 = UNCERTAINTY_MEASURE_WITH_UNIT(LENGTH_MEASURE(2.E-07),#36,
  'distance_accuracy_value','confusion accuracy');
#40 = PRODUCT_RELATED_PRODUCT_CATEGORY('part',$,(#7));
#41 = SHAPE_DEFINITION_REPRESENTATION(#42,#48);
#42 = PRODUCT_DEFINITION_SHAPE('','',#43);
#43 = PRODUCT_DEFINITION('design','',#44,#47);
#44 = PRODUCT_DEFINITION_FORMATION('','',#45);
#45 = PRODUCT('COMPOUND','COMPOUND','',(#46));
#46 = PRODUCT_CONTEXT('',#2,'mechanical');
#47 = PRODUCT_DEFINITION_CONTEXT('part definition',#2,'design');
#48 = ADVANCED_BREP_SHAPE_REPRESENTATION('',(#11,#49),#102);
#49 = MANIFOLD_SOLID_BREP('',#50);
#50 = CLOSED_SHELL('',(#51,#84,#93));
#51 = ADVANCED_FACE('',(#52),#79,.T.);
#52 = FACE_BOUND('',#53,.T.);
#53 = EDGE_LOOP('',(#54,#63,#71,#78));
#54 = ORIENTED_EDGE('',*,*,#55,.F.);
#55 = EDGE_CURVE('',#56,#56,#58,.T.);
#56 = VERTEX_POINT('',#57);
#57 = CARTESIAN_POINT('',(180.52500159502,196.47500170826,
    -1.305000168086));
#58 = CIRCLE('',#59,1.6);
#59 = AXIS2_PLACEMENT_3D('',#60,#61,#62);
#60 = CARTESIAN_POINT('',(180.52500159502,198.07500170826,
    -1.305000168086));
#61 = DIRECTION('',(-1.,1.186550857568E-14,-1.110223024625E-16));
#62 = DIRECTION('',(1.186550857568E-14,1.,1.386669559959E-32));
#63 = ORIENTED_EDGE('',*,*,#64,.T.);
#64 = EDGE_CURVE('',#56,#65,#67,.T.);
#65 = VERTEX_POINT('',#66);
#66 = CARTESIAN_POINT('',(186.52500159502,196.47500170826,
    -1.305000168086));
#67 = LINE('',#68,#69);
#68 = CARTESIAN_POINT('',(186.52500159502,196.47500170826,
    -1.305000168086));
#69 = VECTOR('',#70,1.);
#70 = DIRECTION('',(1.,-1.184237892934E-14,9.251858538543E-17));
#71 = ORIENTED_EDGE('',*,*,#72,.F.);
#72 = EDGE_CURVE('',#65,#65,#73,.T.);
#73 = CIRCLE('',#74,1.6);
#74 = AXIS2_PLACEMENT_3D('',#75,#76,#77);
#75 = CARTESIAN_POINT('',(186.52500159502,198.07500170826,
    -1.305000168086));
#76 = DIRECTION('',(1.,-1.186550857568E-14,1.110223024625E-16));
#77 = DIRECTION('',(1.186550857568E-14,1.,1.386669559959E-32));
#78 = ORIENTED_EDGE('',*,*,#64,.F.);
#79 = CYLINDRICAL_SURFACE('',#80,1.6);
#80 = AXIS2_PLACEMENT_3D('',#81,#82,#83);
#81 = CARTESIAN_POINT('',(186.52500159502,198.07500170826,
    -1.305000168086));
#82 = DIRECTION('',(-1.,1.184237892934E-14,-9.251858538543E-17));
#83 = DIRECTION('',(1.184237892934E-14,1.,1.172677343916E-32));
#84 = ADVANCED_FACE('',(#85),#88,.T.);
#85 = FACE_BOUND('',#86,.T.);
#86 = EDGE_LOOP('',(#87));
#87 = ORIENTED_EDGE('',*,*,#72,.T.);
#88 = PLANE('',#89);
#89 = AXIS2_PLACEMENT_3D('',#90,#91,#92);
#90 = CARTESIAN_POINT('',(186.52500159502,198.07500170826,
    -1.305000168086));
#91 = DIRECTION('',(1.,-1.186550857568E-14,1.110223024625E-16));
#92 = DIRECTION('',(1.186550857568E-14,1.,1.386669559958E-32));
#93 = ADVANCED_FACE('',(#94),#97,.F.);
#94 = FACE_BOUND('',#95,.T.);
#95 = EDGE_LOOP('',(#96));
#96 = ORIENTED_EDGE('',*,*,#55,.T.);
#97 = PLANE('',#98);
#98 = AXIS2_PLACEMENT_3D('',#99,#100,#101);
#99 = CARTESIAN_POINT('',(180.52500159502,198.07500170826,
    -1.305000168086));
#100 = DIRECTION('',(1.,-1.186550857568E-14,1.110223024625E-16));
#101 = DIRECTION('',(1.186550857568E-14,1.,1.386669559958E-32));
#102 = ( GEOMETRIC_REPRESENTATION_CONTEXT(3) 
GLOBAL_UNCERTAINTY_ASSIGNED_CONTEXT((#106)) GLOBAL_UNIT_ASSIGNED_CONTEXT
((#103,#104,#105)) REPRESENTATION_CONTEXT('Context #1',
  '3D Context with UNIT and UNCERTAINTY') );
#103 = ( LENGTH_UNIT() NAMED_UNIT(*) SI_UNIT(.MILLI.,.METRE.) );
#104 = ( NAMED_UNIT(*) PLANE_ANGLE_UNIT() SI_UNIT($,.RADIAN.) );
#105 = ( NAMED_UNIT(*) SI_UNIT($,.STERADIAN.) SOLID_ANGLE_UNIT() );
#106 = UNCERTAINTY_MEASURE_WITH_UNIT(LENGTH_MEASURE(1.E-07),#103,
  'distance_accuracy_value','confusion accuracy');
#107 = CONTEXT_DEPENDENT_SHAPE_REPRESENTATION(#108,#110);
#108 = ( REPRESENTATION_RELATIONSHIP('','',#48,#10) 
REPRESENTATION_RELATIONSHIP_WITH_TRANSFORMATION(#109) 
SHAPE_REPRESENTATION_RELATIONSHIP() );
#109 = ITEM_DEFINED_TRANSFORMATION('','',#11,#15);
#110 = PRODUCT_DEFINITION_SHAPE('Placement','Placement of an item',#111
  );
#111 = NEXT_ASSEMBLY_USAGE_OCCURRENCE('1','COMPOUND','',#5,#43,$);
#112 = PRODUCT_RELATED_PRODUCT_CATEGORY('part',$,(#45));
#113 = SHAPE_DEFINITION_REPRESENTATION(#114,#120);
#114 = PRODUCT_DEFINITION_SHAPE('','',#115);
#115 = PRODUCT_DEFINITION('design','',#116,#119);
#116 = PRODUCT_DEFINITION_FORMATION('','',#117);
#117 = PRODUCT('COMPOUND001','COMPOUND001','',(#118));
#118 = PRODUCT_CONTEXT('',#2,'mechanical');
#119 = PRODUCT_DEFINITION_CONTEXT('part definition',#2,'design');
#120 = ADVANCED_BREP_SHAPE_REPRESENTATION('',(#11,#121),#174);
#121 = MANIFOLD_SOLID_BREP('',#122);
#122 = CLOSED_SHELL('',(#123,#156,#165));
#123 = ADVANCED_FACE('',(#124),#151,.T.);
#124 = FACE_BOUND('',#125,.T.);
#125 = EDGE_LOOP('',(#126,#135,#143,#150));
#126 = ORIENTED_EDGE('',*,*,#127,.F.);
#127 = EDGE_CURVE('',#128,#128,#130,.T.);
#128 = VERTEX_POINT('',#129);
#129 = CARTESIAN_POINT('',(180.52500159502,129.17500170826,
    -1.730000168086));
#130 = CIRCLE('',#131,1.6);
#131 = AXIS2_PLACEMENT_3D('',#132,#133,#134);
#132 = CARTESIAN_POINT('',(180.52500159502,130.77500170826,
    -1.730000168086));
#133 = DIRECTION('',(-1.,1.186550857568E-14,-1.110223024625E-16));
#134 = DIRECTION('',(1.186550857568E-14,1.,1.386669559959E-32));
#135 = ORIENTED_EDGE('',*,*,#136,.T.);
#136 = EDGE_CURVE('',#128,#137,#139,.T.);
#137 = VERTEX_POINT('',#138);
#138 = CARTESIAN_POINT('',(186.52500159502,129.17500170826,
    -1.730000168086));
#139 = LINE('',#140,#141);
#140 = CARTESIAN_POINT('',(186.52500159502,129.17500170826,
    -1.730000168086));
#141 = VECTOR('',#142,1.);
#142 = DIRECTION('',(1.,-1.184237892934E-14,9.251858538543E-17));
#143 = ORIENTED_EDGE('',*,*,#144,.F.);
#144 = EDGE_CURVE('',#137,#137,#145,.T.);
#145 = CIRCLE('',#146,1.6);
#146 = AXIS2_PLACEMENT_3D('',#147,#148,#149);
#147 = CARTESIAN_POINT('',(186.52500159502,130.77500170826,
    -1.730000168086));
#148 = DIRECTION('',(1.,-1.186550857568E-14,1.110223024625E-16));
#149 = DIRECTION('',(1.186550857568E-14,1.,1.386669559959E-32));
#150 = ORIENTED_EDGE('',*,*,#136,.F.);
#151 = CYLINDRICAL_SURFACE('',#152,1.6);
#152 = AXIS2_PLACEMENT_3D('',#153,#154,#155);
#153 = CARTESIAN_POINT('',(186.52500159502,130.77500170826,
    -1.730000168086));
#154 = DIRECTION('',(-1.,1.184237892934E-14,-9.251858538543E-17));
#155 = DIRECTION('',(1.184237892934E-14,1.,1.172677343916E-32));
#156 = ADVANCED_FACE('',(#157),#160,.T.);
#157 = FACE_BOUND('',#158,.T.);
#158 = EDGE_LOOP('',(#159));
#159 = ORIENTED_EDGE('',*,*,#144,.T.);
#160 = PLANE('',#161);
#161 = AXIS2_PLACEMENT_3D('',#162,#163,#164);
#162 = CARTESIAN_POINT('',(186.52500159502,130.77500170826,
    -1.730000168086));
#163 = DIRECTION('',(1.,-1.186550857568E-14,1.110223024625E-16));
#164 = DIRECTION('',(1.186550857568E-14,1.,1.386669559958E-32));
#165 = ADVANCED_FACE('',(#166),#169,.F.);
#166 = FACE_BOUND('',#167,.T.);
#167 = EDGE_LOOP('',(#168));
#168 = ORIENTED_EDGE('',*,*,#127,.T.);
#169 = PLANE('',#170);
#170 = AXIS2_PLACEMENT_3D('',#171,#172,#173);
#171 = CARTESIAN_POINT('',(180.52500159502,130.77500170826,
    -1.730000168086));
#172 = DIRECTION('',(1.,-1.186550857568E-14,1.110223024625E-16));
#173 = DIRECTION('',(1.186550857568E-14,1.,1.386669559958E-32));
#174 = ( GEOMETRIC_REPRESENTATION_CONTEXT(3) 
GLOBAL_UNCERTAINTY_ASSIGNED_CONTEXT((#178)) GLOBAL_UNIT_ASSIGNED_CONTEXT
((#175,#176,#177)) REPRESENTATION_CONTEXT('Context #1',
  '3D Context with UNIT and UNCERTAINTY') );
#175 = ( LENGTH_UNIT() NAMED_UNIT(*) SI_UNIT(.MILLI.,.METRE.) );
#176 = ( NAMED_UNIT(*) PLANE_ANGLE_UNIT() SI_UNIT($,.RADIAN.) );
#177 = ( NAMED_UNIT(*) SI_UNIT($,.STERADIAN.) SOLID_ANGLE_UNIT() );
#178 = UNCERTAINTY_MEASURE_WITH_UNIT(LENGTH_MEASURE(1.E-07),#175,
  'distance_accuracy_value','confusion accuracy');
#179 = CONTEXT_DEPENDENT_SHAPE_REPRESENTATION(#180,#182);
#180 = ( REPRESENTATION_RELATIONSHIP('','',#120,#10) 
REPRESENTATION_RELATIONSHIP_WITH_TRANSFORMATION(#181) 
SHAPE_REPRESENTATION_RELATIONSHIP() );
#181 = ITEM_DEFINED_TRANSFORMATION('','',#11,#19);
#182 = PRODUCT_DEFINITION_SHAPE('Placement','Placement of an item',#183
  );
#183 = NEXT_ASSEMBLY_USAGE_OCCURRENCE('2','COMPOUND001','',#5,#115,$);
#184 = PRODUCT_RELATED_PRODUCT_CATEGORY('part',$,(#117));
#185 = SHAPE_DEFINITION_REPRESENTATION(#186,#192);
#186 = PRODUCT_DEFINITION_SHAPE('','',#187);
#187 = PRODUCT_DEFINITION('design','',#188,#191);
#188 = PRODUCT_DEFINITION_FORMATION('','',#189);
#189 = PRODUCT('COMPOUND002','COMPOUND002','',(#190));
#190 = PRODUCT_CONTEXT('',#2,'mechanical');
#191 = PRODUCT_DEFINITION_CONTEXT('part definition',#2,'design');
#192 = ADVANCED_BREP_SHAPE_REPRESENTATION('',(#11,#193),#246);
#193 = MANIFOLD_SOLID_BREP('',#194);
#194 = CLOSED_SHELL('',(#195,#228,#237));
#195 = ADVANCED_FACE('',(#196),#223,.T.);
#196 = FACE_BOUND('',#197,.T.);
#197 = EDGE_LOOP('',(#198,#207,#215,#222));
#198 = ORIENTED_EDGE('',*,*,#199,.F.);
#199 = EDGE_CURVE('',#200,#200,#202,.T.);
#200 = VERTEX_POINT('',#201);
#201 = CARTESIAN_POINT('',(180.52500159502,196.05000170826,
    64.469999831914));
#202 = CIRCLE('',#203,1.6);
#203 = AXIS2_PLACEMENT_3D('',#204,#205,#206);
#204 = CARTESIAN_POINT('',(180.52500159502,197.65000170826,
    64.469999831914));
#205 = DIRECTION('',(-1.,1.186550857568E-14,-1.110223024625E-16));
#206 = DIRECTION('',(1.186550857568E-14,1.,1.386669559959E-32));
#207 = ORIENTED_EDGE('',*,*,#208,.T.);
#208 = EDGE_CURVE('',#200,#209,#211,.T.);
#209 = VERTEX_POINT('',#210);
#210 = CARTESIAN_POINT('',(186.52500159502,196.05000170826,
    64.469999831914));
#211 = LINE('',#212,#213);
#212 = CARTESIAN_POINT('',(186.52500159502,196.05000170826,
    64.469999831914));
#213 = VECTOR('',#214,1.);
#214 = DIRECTION('',(1.,-1.184237892934E-14,0.));
#215 = ORIENTED_EDGE('',*,*,#216,.F.);
#216 = EDGE_CURVE('',#209,#209,#217,.T.);
#217 = CIRCLE('',#218,1.6);
#218 = AXIS2_PLACEMENT_3D('',#219,#220,#221);
#219 = CARTESIAN_POINT('',(186.52500159502,197.65000170826,
    64.469999831914));
#220 = DIRECTION('',(1.,-1.186550857568E-14,1.110223024625E-16));
#221 = DIRECTION('',(1.186550857568E-14,1.,1.386669559959E-32));
#222 = ORIENTED_EDGE('',*,*,#208,.F.);
#223 = CYLINDRICAL_SURFACE('',#224,1.6);
#224 = AXIS2_PLACEMENT_3D('',#225,#226,#227);
#225 = CARTESIAN_POINT('',(186.52500159502,197.65000170826,
    64.469999831914));
#226 = DIRECTION('',(-1.,1.184237892934E-14,0.));
#227 = DIRECTION('',(1.184237892934E-14,1.,1.386669559959E-32));
#228 = ADVANCED_FACE('',(#229),#232,.T.);
#229 = FACE_BOUND('',#230,.T.);
#230 = EDGE_LOOP('',(#231));
#231 = ORIENTED_EDGE('',*,*,#216,.T.);
#232 = PLANE('',#233);
#233 = AXIS2_PLACEMENT_3D('',#234,#235,#236);
#234 = CARTESIAN_POINT('',(186.52500159502,197.65000170826,
    64.469999831914));
#235 = DIRECTION('',(1.,-1.186550857568E-14,1.110223024625E-16));
#236 = DIRECTION('',(1.186550857568E-14,1.,1.386669559958E-32));
#237 = ADVANCED_FACE('',(#238),#241,.F.);
#238 = FACE_BOUND('',#239,.T.);
#239 = EDGE_LOOP('',(#240));
#240 = ORIENTED_EDGE('',*,*,#199,.T.);
#241 = PLANE('',#242);
#242 = AXIS2_PLACEMENT_3D('',#243,#244,#245);
#243 = CARTESIAN_POINT('',(180.52500159502,197.65000170826,
    64.469999831914));
#244 = DIRECTION('',(1.,-1.186550857568E-14,1.110223024625E-16));
#245 = DIRECTION('',(1.186550857568E-14,1.,1.386669559958E-32));
#246 = ( GEOMETRIC_REPRESENTATION_CONTEXT(3) 
GLOBAL_UNCERTAINTY_ASSIGNED_CONTEXT((#250)) GLOBAL_UNIT_ASSIGNED_CONTEXT
((#247,#248,#249)) REPRESENTATION_CONTEXT('Context #1',
  '3D Context with UNIT and UNCERTAINTY') );
#247 = ( LENGTH_UNIT() NAMED_UNIT(*) SI_UNIT(.MILLI.,.METRE.) );
#248 = ( NAMED_UNIT(*) PLANE_ANGLE_UNIT() SI_UNIT($,.RADIAN.) );
#249 = ( NAMED_UNIT(*) SI_UNIT($,.STERADIAN.) SOLID_ANGLE_UNIT() );
#250 = UNCERTAINTY_MEASURE_WITH_UNIT(LENGTH_MEASURE(1.E-07),#247,
  'distance_accuracy_value','confusion accuracy');
#251 = CONTEXT_DEPENDENT_SHAPE_REPRESENTATION(#252,#254);
#252 = ( REPRESENTATION_RELATIONSHIP('','',#192,#10) 
REPRESENTATION_RELATIONSHIP_WITH_TRANSFORMATION(#253) 
SHAPE_REPRESENTATION_RELATIONSHIP() );
#253 = ITEM_DEFINED_TRANSFORMATION('','',#11,#23);
#254 = PRODUCT_DEFINITION_SHAPE('Placement','Placement of an item',#255
  );
#255 = NEXT_ASSEMBLY_USAGE_OCCURRENCE('3','COMPOUND002','',#5,#187,$);
#256 = PRODUCT_RELATED_PRODUCT_CATEGORY('part',$,(#189));
#257 = SHAPE_DEFINITION_REPRESENTATION(#258,#264);
#258 = PRODUCT_DEFINITION_SHAPE('','',#259);
#259 = PRODUCT_DEFINITION('design','',#260,#263);
#260 = PRODUCT_DEFINITION_FORMATION('','',#261);
#261 = PRODUCT('COMPOUND003','COMPOUND003','',(#262));
#262 = PRODUCT_CONTEXT('',#2,'mechanical');
#263 = PRODUCT_DEFINITION_CONTEXT('part definition',#2,'design');
#264 = ADVANCED_BREP_SHAPE_REPRESENTATION('',(#11,#265),#318);
#265 = MANIFOLD_SOLID_BREP('',#266);
#266 = CLOSED_SHELL('',(#267,#300,#309));
#267 = ADVANCED_FACE('',(#268),#295,.T.);
#268 = FACE_BOUND('',#269,.T.);
#269 = EDGE_LOOP('',(#270,#279,#287,#294));
#270 = ORIENTED_EDGE('',*,*,#271,.F.);
#271 = EDGE_CURVE('',#272,#272,#274,.T.);
#272 = VERTEX_POINT('',#273);
#273 = CARTESIAN_POINT('',(180.52500159502,129.50000170826,
    64.694999831914));
#274 = CIRCLE('',#275,1.6);
#275 = AXIS2_PLACEMENT_3D('',#276,#277,#278);
#276 = CARTESIAN_POINT('',(180.52500159502,131.10000170826,
    64.694999831914));
#277 = DIRECTION('',(-1.,1.186550857568E-14,-1.110223024625E-16));
#278 = DIRECTION('',(1.186550857568E-14,1.,1.386669559959E-32));
#279 = ORIENTED_EDGE('',*,*,#280,.T.);
#280 = EDGE_CURVE('',#272,#281,#283,.T.);
#281 = VERTEX_POINT('',#282);
#282 = CARTESIAN_POINT('',(186.52500159502,129.50000170826,
    64.694999831914));
#283 = LINE('',#284,#285);
#284 = CARTESIAN_POINT('',(186.52500159502,129.50000170826,
    64.694999831914));
#285 = VECTOR('',#286,1.);
#286 = DIRECTION('',(1.,-1.184237892934E-14,0.));
#287 = ORIENTED_EDGE('',*,*,#288,.F.);
#288 = EDGE_CURVE('',#281,#281,#289,.T.);
#289 = CIRCLE('',#290,1.6);
#290 = AXIS2_PLACEMENT_3D('',#291,#292,#293);
#291 = CARTESIAN_POINT('',(186.52500159502,131.10000170826,
    64.694999831914));
#292 = DIRECTION('',(1.,-1.186550857568E-14,1.110223024625E-16));
#293 = DIRECTION('',(1.186550857568E-14,1.,1.386669559959E-32));
#294 = ORIENTED_EDGE('',*,*,#280,.F.);
#295 = CYLINDRICAL_SURFACE('',#296,1.6);
#296 = AXIS2_PLACEMENT_3D('',#297,#298,#299);
#297 = CARTESIAN_POINT('',(186.52500159502,131.10000170826,
    64.694999831914));
#298 = DIRECTION('',(-1.,1.184237892934E-14,0.));
#299 = DIRECTION('',(1.184237892934E-14,1.,1.386669559959E-32));
#300 = ADVANCED_FACE('',(#301),#304,.T.);
#301 = FACE_BOUND('',#302,.T.);
#302 = EDGE_LOOP('',(#303));
#303 = ORIENTED_EDGE('',*,*,#288,.T.);
#304 = PLANE('',#305);
#305 = AXIS2_PLACEMENT_3D('',#306,#307,#308);
#306 = CARTESIAN_POINT('',(186.52500159502,131.10000170826,
    64.694999831914));
#307 = DIRECTION('',(1.,-1.186550857568E-14,1.110223024625E-16));
#308 = DIRECTION('',(1.186550857568E-14,1.,1.386669559958E-32));
#309 = ADVANCED_FACE('',(#310),#313,.F.);
#310 = FACE_BOUND('',#311,.T.);
#311 = EDGE_LOOP('',(#312));
#312 = ORIENTED_EDGE('',*,*,#271,.T.);
#313 = PLANE('',#314);
#314 = AXIS2_PLACEMENT_3D('',#315,#316,#317);
#315 = CARTESIAN_POINT('',(180.52500159502,131.10000170826,
    64.694999831914));
#316 = DIRECTION('',(1.,-1.186550857568E-14,1.110223024625E-16));
#317 = DIRECTION('',(1.186550857568E-14,1.,1.386669559958E-32));
#318 = ( GEOMETRIC_REPRESENTATION_CONTEXT(3) 
GLOBAL_UNCERTAINTY_ASSIGNED_CONTEXT((#322)) GLOBAL_UNIT_ASSIGNED_CONTEXT
((#319,#320,#321)) REPRESENTATION_CONTEXT('Context #1',
  '3D Context with UNIT and UNCERTAINTY') );
#319 = ( LENGTH_UNIT() NAMED_UNIT(*) SI_UNIT(.MILLI.,.METRE.) );
#320 = ( NAMED_UNIT(*) PLANE_ANGLE_UNIT() SI_UNIT($,.RADIAN.) );
#321 = ( NAMED_UNIT(*) SI_UNIT($,.STERADIAN.) SOLID_ANGLE_UNIT() );
#322 = UNCERTAINTY_MEASURE_WITH_UNIT(LENGTH_MEASURE(1.E-07),#319,
  'distance_accuracy_value','confusion accuracy');
#323 = CONTEXT_DEPENDENT_SHAPE_REPRESENTATION(#324,#326);
#324 = ( REPRESENTATION_RELATIONSHIP('','',#264,#10) 
REPRESENTATION_RELATIONSHIP_WITH_TRANSFORMATION(#325) 
SHAPE_REPRESENTATION_RELATIONSHIP() );
#325 = ITEM_DEFINED_TRANSFORMATION('','',#11,#27);
#326 = PRODUCT_DEFINITION_SHAPE('Placement','Placement of an item',#327
  );
#327 = NEXT_ASSEMBLY_USAGE_OCCURRENCE('4','COMPOUND003','',#5,#259,$);
#328 = PRODUCT_RELATED_PRODUCT_CATEGORY('part',$,(#261));
#329 = SHAPE_DEFINITION_REPRESENTATION(#330,#336);
#330 = PRODUCT_DEFINITION_SHAPE('','',#331);
#331 = PRODUCT_DEFINITION('design','',#332,#335);
#332 = PRODUCT_DEFINITION_FORMATION('','',#333);
#333 = PRODUCT('COMPOUND004','COMPOUND004','',(#334));
#334 = PRODUCT_CONTEXT('',#2,'mechanical');
#335 = PRODUCT_DEFINITION_CONTEXT('part definition',#2,'design');
#336 = ADVANCED_BREP_SHAPE_REPRESENTATION('',(#11,#337),#1375);
#337 = MANIFOLD_SOLID_BREP('',#338);
#338 = CLOSED_SHELL('',(#339,#372,#381,#414,#423,#456,#465,#498,#507,
    #547,#578,#618,#676,#709,#749,#814,#831,#871,#893,#910,#943,#976,
    #1007,#1031,#1055,#1072,#1112,#1143,#1174,#1196,#1225,#1264,#1290,
    #1338,#1363));
#339 = ADVANCED_FACE('',(#340),#367,.F.);
#340 = FACE_BOUND('',#341,.F.);
#341 = EDGE_LOOP('',(#342,#352,#359,#360));
#342 = ORIENTED_EDGE('',*,*,#343,.T.);
#343 = EDGE_CURVE('',#344,#346,#348,.T.);
#344 = VERTEX_POINT('',#345);
#345 = CARTESIAN_POINT('',(178.5000026375,213.00000317394,
    -45.84100484906));
#346 = VERTEX_POINT('',#347);
#347 = CARTESIAN_POINT('',(178.5000026375,213.00000317394,
    -32.84100484906));
#348 = LINE('',#349,#350);
#349 = CARTESIAN_POINT('',(178.5000026375,213.00000317394,
    -45.84100484906));
#350 = VECTOR('',#351,1.);
#351 = DIRECTION('',(0.,0.,1.));
#352 = ORIENTED_EDGE('',*,*,#353,.F.);
#353 = EDGE_CURVE('',#346,#346,#354,.T.);
#354 = CIRCLE('',#355,1.5);
#355 = AXIS2_PLACEMENT_3D('',#356,#357,#358);
#356 = CARTESIAN_POINT('',(177.0000026375,213.00000317394,
    -32.84100484906));
#357 = DIRECTION('',(0.,0.,1.));
#358 = DIRECTION('',(-1.,0.,0.));
#359 = ORIENTED_EDGE('',*,*,#343,.F.);
#360 = ORIENTED_EDGE('',*,*,#361,.T.);
#361 = EDGE_CURVE('',#344,#344,#362,.T.);
#362 = CIRCLE('',#363,1.5);
#363 = AXIS2_PLACEMENT_3D('',#364,#365,#366);
#364 = CARTESIAN_POINT('',(177.0000026375,213.00000317394,
    -45.84100484906));
#365 = DIRECTION('',(0.,0.,1.));
#366 = DIRECTION('',(-1.,0.,0.));
#367 = CYLINDRICAL_SURFACE('',#368,1.5);
#368 = AXIS2_PLACEMENT_3D('',#369,#370,#371);
#369 = CARTESIAN_POINT('',(177.0000026375,213.00000317394,
    -45.84100484906));
#370 = DIRECTION('',(0.,0.,1.));
#371 = DIRECTION('',(-1.,0.,0.));
#372 = ADVANCED_FACE('',(#373),#376,.T.);
#373 = FACE_BOUND('',#374,.T.);
#374 = EDGE_LOOP('',(#375));
#375 = ORIENTED_EDGE('',*,*,#353,.F.);
#376 = PLANE('',#377);
#377 = AXIS2_PLACEMENT_3D('',#378,#379,#380);
#378 = CARTESIAN_POINT('',(177.0000026375,213.00000317394,
    -32.84100484906));
#379 = DIRECTION('',(0.,0.,-1.));
#380 = DIRECTION('',(-1.,0.,0.));
#381 = ADVANCED_FACE('',(#382),#409,.F.);
#382 = FACE_BOUND('',#383,.F.);
#383 = EDGE_LOOP('',(#384,#394,#401,#402));
#384 = ORIENTED_EDGE('',*,*,#385,.T.);
#385 = EDGE_CURVE('',#386,#388,#390,.T.);
#386 = VERTEX_POINT('',#387);
#387 = CARTESIAN_POINT('',(259.49999423325,61.899998616427,
    -45.84100484906));
#388 = VERTEX_POINT('',#389);
#389 = CARTESIAN_POINT('',(259.49999423325,61.899998616427,
    -32.84100484906));
#390 = LINE('',#391,#392);
#391 = CARTESIAN_POINT('',(259.49999423325,61.899998616427,
    -45.84100484906));
#392 = VECTOR('',#393,1.);
#393 = DIRECTION('',(0.,0.,1.));
#394 = ORIENTED_EDGE('',*,*,#395,.F.);
#395 = EDGE_CURVE('',#388,#388,#396,.T.);
#396 = CIRCLE('',#397,1.5);
#397 = AXIS2_PLACEMENT_3D('',#398,#399,#400);
#398 = CARTESIAN_POINT('',(257.99999423325,61.899998616427,
    -32.84100484906));
#399 = DIRECTION('',(0.,0.,1.));
#400 = DIRECTION('',(-1.,0.,0.));
#401 = ORIENTED_EDGE('',*,*,#385,.F.);
#402 = ORIENTED_EDGE('',*,*,#403,.T.);
#403 = EDGE_CURVE('',#386,#386,#404,.T.);
#404 = CIRCLE('',#405,1.5);
#405 = AXIS2_PLACEMENT_3D('',#406,#407,#408);
#406 = CARTESIAN_POINT('',(257.99999423325,61.899998616427,
    -45.84100484906));
#407 = DIRECTION('',(0.,0.,1.));
#408 = DIRECTION('',(-1.,0.,0.));
#409 = CYLINDRICAL_SURFACE('',#410,1.5);
#410 = AXIS2_PLACEMENT_3D('',#411,#412,#413);
#411 = CARTESIAN_POINT('',(257.99999423325,61.899998616427,
    -45.84100484906));
#412 = DIRECTION('',(0.,0.,1.));
#413 = DIRECTION('',(-1.,0.,0.));
#414 = ADVANCED_FACE('',(#415),#418,.T.);
#415 = FACE_BOUND('',#416,.T.);
#416 = EDGE_LOOP('',(#417));
#417 = ORIENTED_EDGE('',*,*,#395,.F.);
#418 = PLANE('',#419);
#419 = AXIS2_PLACEMENT_3D('',#420,#421,#422);
#420 = CARTESIAN_POINT('',(257.99999423325,61.899998616427,
    -32.84100484906));
#421 = DIRECTION('',(0.,0.,-1.));
#422 = DIRECTION('',(-1.,0.,0.));
#423 = ADVANCED_FACE('',(#424),#451,.F.);
#424 = FACE_BOUND('',#425,.F.);
#425 = EDGE_LOOP('',(#426,#436,#443,#444));
#426 = ORIENTED_EDGE('',*,*,#427,.T.);
#427 = EDGE_CURVE('',#428,#430,#432,.T.);
#428 = VERTEX_POINT('',#429);
#429 = CARTESIAN_POINT('',(259.5000038445,213.00000317394,
    -45.84100484906));
#430 = VERTEX_POINT('',#431);
#431 = CARTESIAN_POINT('',(259.5000038445,213.00000317394,
    -32.84100484906));
#432 = LINE('',#433,#434);
#433 = CARTESIAN_POINT('',(259.5000038445,213.00000317394,
    -45.84100484906));
#434 = VECTOR('',#435,1.);
#435 = DIRECTION('',(0.,0.,1.));
#436 = ORIENTED_EDGE('',*,*,#437,.F.);
#437 = EDGE_CURVE('',#430,#430,#438,.T.);
#438 = CIRCLE('',#439,1.5);
#439 = AXIS2_PLACEMENT_3D('',#440,#441,#442);
#440 = CARTESIAN_POINT('',(258.0000038445,213.00000317394,
    -32.84100484906));
#441 = DIRECTION('',(0.,0.,1.));
#442 = DIRECTION('',(-1.,0.,0.));
#443 = ORIENTED_EDGE('',*,*,#427,.F.);
#444 = ORIENTED_EDGE('',*,*,#445,.T.);
#445 = EDGE_CURVE('',#428,#428,#446,.T.);
#446 = CIRCLE('',#447,1.5);
#447 = AXIS2_PLACEMENT_3D('',#448,#449,#450);
#448 = CARTESIAN_POINT('',(258.0000038445,213.00000317394,
    -45.84100484906));
#449 = DIRECTION('',(0.,0.,1.));
#450 = DIRECTION('',(-1.,0.,0.));
#451 = CYLINDRICAL_SURFACE('',#452,1.5);
#452 = AXIS2_PLACEMENT_3D('',#453,#454,#455);
#453 = CARTESIAN_POINT('',(258.0000038445,213.00000317394,
    -45.84100484906));
#454 = DIRECTION('',(0.,0.,1.));
#455 = DIRECTION('',(-1.,0.,0.));
#456 = ADVANCED_FACE('',(#457),#460,.T.);
#457 = FACE_BOUND('',#458,.T.);
#458 = EDGE_LOOP('',(#459));
#459 = ORIENTED_EDGE('',*,*,#437,.F.);
#460 = PLANE('',#461);
#461 = AXIS2_PLACEMENT_3D('',#462,#463,#464);
#462 = CARTESIAN_POINT('',(258.0000038445,213.00000317394,
    -32.84100484906));
#463 = DIRECTION('',(0.,0.,-1.));
#464 = DIRECTION('',(-1.,0.,0.));
#465 = ADVANCED_FACE('',(#466),#493,.F.);
#466 = FACE_BOUND('',#467,.F.);
#467 = EDGE_LOOP('',(#468,#478,#485,#486));
#468 = ORIENTED_EDGE('',*,*,#469,.T.);
#469 = EDGE_CURVE('',#470,#472,#474,.T.);
#470 = VERTEX_POINT('',#471);
#471 = CARTESIAN_POINT('',(178.5000026375,62.000000923872,
    -45.84100484906));
#472 = VERTEX_POINT('',#473);
#473 = CARTESIAN_POINT('',(178.5000026375,62.000000923872,
    -32.84100484906));
#474 = LINE('',#475,#476);
#475 = CARTESIAN_POINT('',(178.5000026375,62.000000923872,
    -45.84100484906));
#476 = VECTOR('',#477,1.);
#477 = DIRECTION('',(0.,0.,1.));
#478 = ORIENTED_EDGE('',*,*,#479,.F.);
#479 = EDGE_CURVE('',#472,#472,#480,.T.);
#480 = CIRCLE('',#481,1.5);
#481 = AXIS2_PLACEMENT_3D('',#482,#483,#484);
#482 = CARTESIAN_POINT('',(177.0000026375,62.000000923872,
    -32.84100484906));
#483 = DIRECTION('',(0.,0.,1.));
#484 = DIRECTION('',(-1.,0.,0.));
#485 = ORIENTED_EDGE('',*,*,#469,.F.);
#486 = ORIENTED_EDGE('',*,*,#487,.T.);
#487 = EDGE_CURVE('',#470,#470,#488,.T.);
#488 = CIRCLE('',#489,1.5);
#489 = AXIS2_PLACEMENT_3D('',#490,#491,#492);
#490 = CARTESIAN_POINT('',(177.0000026375,62.000000923872,
    -45.84100484906));
#491 = DIRECTION('',(0.,0.,1.));
#492 = DIRECTION('',(-1.,0.,0.));
#493 = CYLINDRICAL_SURFACE('',#494,1.5);
#494 = AXIS2_PLACEMENT_3D('',#495,#496,#497);
#495 = CARTESIAN_POINT('',(177.0000026375,62.000000923872,
    -45.84100484906));
#496 = DIRECTION('',(0.,0.,1.));
#497 = DIRECTION('',(-1.,0.,0.));
#498 = ADVANCED_FACE('',(#499),#502,.T.);
#499 = FACE_BOUND('',#500,.T.);
#500 = EDGE_LOOP('',(#501));
#501 = ORIENTED_EDGE('',*,*,#479,.F.);
#502 = PLANE('',#503);
#503 = AXIS2_PLACEMENT_3D('',#504,#505,#506);
#504 = CARTESIAN_POINT('',(177.0000026375,62.000000923872,
    -32.84100484906));
#505 = DIRECTION('',(0.,0.,-1.));
#506 = DIRECTION('',(-1.,0.,0.));
#507 = ADVANCED_FACE('',(#508),#542,.T.);
#508 = FACE_BOUND('',#509,.T.);
#509 = EDGE_LOOP('',(#510,#520,#528,#536));
#510 = ORIENTED_EDGE('',*,*,#511,.F.);
#511 = EDGE_CURVE('',#512,#514,#516,.T.);
#512 = VERTEX_POINT('',#513);
#513 = CARTESIAN_POINT('',(180.,210.00000312924,69.509335584721));
#514 = VERTEX_POINT('',#515);
#515 = CARTESIAN_POINT('',(255.0000038743,210.00000312924,
    69.509335584721));
#516 = LINE('',#517,#518);
#517 = CARTESIAN_POINT('',(217.50000193715,210.00000312924,
    69.509335584721));
#518 = VECTOR('',#519,1.);
#519 = DIRECTION('',(1.,0.,-6.661338147751E-16));
#520 = ORIENTED_EDGE('',*,*,#521,.F.);
#521 = EDGE_CURVE('',#522,#512,#524,.T.);
#522 = VERTEX_POINT('',#523);
#523 = CARTESIAN_POINT('',(180.,210.00000312924,-39.49066441527));
#524 = LINE('',#525,#526);
#525 = CARTESIAN_POINT('',(180.,210.00000312924,41.294416580094));
#526 = VECTOR('',#527,1.);
#527 = DIRECTION('',(6.029673089348E-16,0.,1.));
#528 = ORIENTED_EDGE('',*,*,#529,.F.);
#529 = EDGE_CURVE('',#530,#522,#532,.T.);
#530 = VERTEX_POINT('',#531);
#531 = CARTESIAN_POINT('',(255.0000038743,210.00000312924,
    -39.49066441527));
#532 = LINE('',#533,#534);
#533 = CARTESIAN_POINT('',(175.0000026077,210.00000312924,
    -39.49066441527));
#534 = VECTOR('',#535,1.);
#535 = DIRECTION('',(-1.,0.,0.));
#536 = ORIENTED_EDGE('',*,*,#537,.F.);
#537 = EDGE_CURVE('',#514,#530,#538,.T.);
#538 = LINE('',#539,#540);
#539 = CARTESIAN_POINT('',(255.0000038743,210.00000312924,
    69.509335584721));
#540 = VECTOR('',#541,1.);
#541 = DIRECTION('',(0.,0.,-1.));
#542 = PLANE('',#543);
#543 = AXIS2_PLACEMENT_3D('',#544,#545,#546);
#544 = CARTESIAN_POINT('',(255.0000038743,210.00000312924,
    69.509335584721));
#545 = DIRECTION('',(0.,-1.,0.));
#546 = DIRECTION('',(-1.,0.,0.));
#547 = ADVANCED_FACE('',(#548),#573,.T.);
#548 = FACE_BOUND('',#549,.T.);
#549 = EDGE_LOOP('',(#550,#551,#559,#567));
#550 = ORIENTED_EDGE('',*,*,#529,.T.);
#551 = ORIENTED_EDGE('',*,*,#552,.F.);
#552 = EDGE_CURVE('',#553,#522,#555,.T.);
#553 = VERTEX_POINT('',#554);
#554 = CARTESIAN_POINT('',(180.,215.,-39.49066441527));
#555 = LINE('',#556,#557);
#556 = CARTESIAN_POINT('',(180.,175.00000078231,-39.49066441527));
#557 = VECTOR('',#558,1.);
#558 = DIRECTION('',(6.876220023485E-16,-1.,0.));
#559 = ORIENTED_EDGE('',*,*,#560,.T.);
#560 = EDGE_CURVE('',#553,#561,#563,.T.);
#561 = VERTEX_POINT('',#562);
#562 = CARTESIAN_POINT('',(255.0000038743,215.,-39.49066441527));
#563 = LINE('',#564,#565);
#564 = CARTESIAN_POINT('',(180.,215.,-39.49066441527));
#565 = VECTOR('',#566,1.);
#566 = DIRECTION('',(1.,8.881784197001E-16,0.));
#567 = ORIENTED_EDGE('',*,*,#568,.F.);
#568 = EDGE_CURVE('',#530,#561,#569,.T.);
#569 = LINE('',#570,#571);
#570 = CARTESIAN_POINT('',(255.0000038743,138.25000125914,
    -39.49066441527));
#571 = VECTOR('',#572,1.);
#572 = DIRECTION('',(-9.168293417531E-16,1.,0.));
#573 = PLANE('',#574);
#574 = AXIS2_PLACEMENT_3D('',#575,#576,#577);
#575 = CARTESIAN_POINT('',(217.50000193715,212.50000156462,
    -39.49066441527));
#576 = DIRECTION('',(0.,0.,-1.));
#577 = DIRECTION('',(-1.,0.,0.));
#578 = ADVANCED_FACE('',(#579),#613,.T.);
#579 = FACE_BOUND('',#580,.T.);
#580 = EDGE_LOOP('',(#581,#582,#583,#591,#599,#607));
#581 = ORIENTED_EDGE('',*,*,#552,.T.);
#582 = ORIENTED_EDGE('',*,*,#521,.T.);
#583 = ORIENTED_EDGE('',*,*,#584,.T.);
#584 = EDGE_CURVE('',#512,#585,#587,.T.);
#585 = VERTEX_POINT('',#586);
#586 = CARTESIAN_POINT('',(180.,64.000000953674,69.509335584721));
#587 = LINE('',#588,#589);
#588 = CARTESIAN_POINT('',(180.,98.750000447035,69.509335584721));
#589 = VECTOR('',#590,1.);
#590 = DIRECTION('',(6.876220023485E-16,-1.,-4.580482675477E-31));
#591 = ORIENTED_EDGE('',*,*,#592,.T.);
#592 = EDGE_CURVE('',#585,#593,#595,.T.);
#593 = VERTEX_POINT('',#594);
#594 = CARTESIAN_POINT('',(180.,64.000000953674,-39.5881483065));
#595 = LINE('',#596,#597);
#596 = CARTESIAN_POINT('',(180.,64.000000953674,-13.25432536552));
#597 = VECTOR('',#598,1.);
#598 = DIRECTION('',(-6.029673089348E-16,0.,-1.));
#599 = ORIENTED_EDGE('',*,*,#600,.T.);
#600 = EDGE_CURVE('',#593,#601,#603,.T.);
#601 = VERTEX_POINT('',#602);
#602 = CARTESIAN_POINT('',(180.,215.,-39.5881483065));
#603 = LINE('',#604,#605);
#604 = CARTESIAN_POINT('',(180.,176.25,-39.5881483065));
#605 = VECTOR('',#606,1.);
#606 = DIRECTION('',(-6.876220023485E-16,1.,4.198775785854E-31));
#607 = ORIENTED_EDGE('',*,*,#608,.F.);
#608 = EDGE_CURVE('',#553,#601,#609,.T.);
#609 = LINE('',#610,#611);
#610 = CARTESIAN_POINT('',(180.,215.,72.));
#611 = VECTOR('',#612,1.);
#612 = DIRECTION('',(0.,0.,-1.));
#613 = PLANE('',#614);
#614 = AXIS2_PLACEMENT_3D('',#615,#616,#617);
#615 = CARTESIAN_POINT('',(180.,137.5,13.079497575468));
#616 = DIRECTION('',(1.,6.876220023485E-16,-6.029673089348E-16));
#617 = DIRECTION('',(-6.029673089348E-16,0.,-1.));
#618 = ADVANCED_FACE('',(#619,#637),#671,.T.);
#619 = FACE_BOUND('',#620,.T.);
#620 = EDGE_LOOP('',(#621,#622,#630,#636));
#621 = ORIENTED_EDGE('',*,*,#511,.T.);
#622 = ORIENTED_EDGE('',*,*,#623,.T.);
#623 = EDGE_CURVE('',#514,#624,#626,.T.);
#624 = VERTEX_POINT('',#625);
#625 = CARTESIAN_POINT('',(255.0000038743,64.000000953674,
    69.509335584721));
#626 = LINE('',#627,#628);
#627 = CARTESIAN_POINT('',(255.0000038743,62.000000923872,
    69.509335584721));
#628 = VECTOR('',#629,1.);
#629 = DIRECTION('',(9.168293417531E-16,-1.,-6.107310269197E-31));
#630 = ORIENTED_EDGE('',*,*,#631,.T.);
#631 = EDGE_CURVE('',#624,#585,#632,.T.);
#632 = LINE('',#633,#634);
#633 = CARTESIAN_POINT('',(220.,64.000000953674,69.509335584721));
#634 = VECTOR('',#635,1.);
#635 = DIRECTION('',(-1.,0.,6.661338147751E-16));
#636 = ORIENTED_EDGE('',*,*,#584,.F.);
#637 = FACE_BOUND('',#638,.T.);
#638 = EDGE_LOOP('',(#639,#649,#657,#665));
#639 = ORIENTED_EDGE('',*,*,#640,.T.);
#640 = EDGE_CURVE('',#641,#643,#645,.T.);
#641 = VERTEX_POINT('',#642);
#642 = CARTESIAN_POINT('',(195.09330729219,177.22575764061,
    69.509335584721));
#643 = VERTEX_POINT('',#644);
#644 = CARTESIAN_POINT('',(195.09330729219,189.9071412312,
    69.509335584721));
#645 = LINE('',#646,#647);
#646 = CARTESIAN_POINT('',(195.09330729219,124.95357106263,
    69.509335584721));
#647 = VECTOR('',#648,1.);
#648 = DIRECTION('',(0.,1.,0.));
#649 = ORIENTED_EDGE('',*,*,#650,.T.);
#650 = EDGE_CURVE('',#643,#651,#653,.T.);
#651 = VERTEX_POINT('',#652);
#652 = CARTESIAN_POINT('',(186.09330715808,189.9071412312,
    69.509335584721));
#653 = LINE('',#654,#655);
#654 = CARTESIAN_POINT('',(183.04665357904,189.9071412312,
    69.509335584721));
#655 = VECTOR('',#656,1.);
#656 = DIRECTION('',(-1.,0.,6.661338147751E-16));
#657 = ORIENTED_EDGE('',*,*,#658,.T.);
#658 = EDGE_CURVE('',#651,#659,#661,.T.);
#659 = VERTEX_POINT('',#660);
#660 = CARTESIAN_POINT('',(186.09330715808,177.22575764061,
    69.509335584721));
#661 = LINE('',#662,#663);
#662 = CARTESIAN_POINT('',(186.09330715808,118.61287926734,
    69.509335584721));
#663 = VECTOR('',#664,1.);
#664 = DIRECTION('',(0.,-1.,0.));
#665 = ORIENTED_EDGE('',*,*,#666,.T.);
#666 = EDGE_CURVE('',#659,#641,#667,.T.);
#667 = LINE('',#668,#669);
#668 = CARTESIAN_POINT('',(187.54665364609,177.22575764061,
    69.509335584721));
#669 = VECTOR('',#670,1.);
#670 = DIRECTION('',(1.,0.,-6.661338147751E-16));
#671 = PLANE('',#672);
#672 = AXIS2_PLACEMENT_3D('',#673,#674,#675);
#673 = CARTESIAN_POINT('',(180.,60.00000089407,69.509335584721));
#674 = DIRECTION('',(-6.661338147751E-16,0.,-1.));
#675 = DIRECTION('',(0.,1.,0.));
#676 = ADVANCED_FACE('',(#677),#704,.T.);
#677 = FACE_BOUND('',#678,.T.);
#678 = EDGE_LOOP('',(#679,#680,#688,#696,#702,#703));
#679 = ORIENTED_EDGE('',*,*,#568,.T.);
#680 = ORIENTED_EDGE('',*,*,#681,.T.);
#681 = EDGE_CURVE('',#561,#682,#684,.T.);
#682 = VERTEX_POINT('',#683);
#683 = CARTESIAN_POINT('',(255.0000038743,215.,-39.5881483065));
#684 = LINE('',#685,#686);
#685 = CARTESIAN_POINT('',(255.0000038743,215.,69.509335584721));
#686 = VECTOR('',#687,1.);
#687 = DIRECTION('',(0.,0.,-1.));
#688 = ORIENTED_EDGE('',*,*,#689,.F.);
#689 = EDGE_CURVE('',#690,#682,#692,.T.);
#690 = VERTEX_POINT('',#691);
#691 = CARTESIAN_POINT('',(255.0000038743,64.000000953674,-39.5881483065
    ));
#692 = LINE('',#693,#694);
#693 = CARTESIAN_POINT('',(255.0000038743,139.50000047683,-39.5881483065
    ));
#694 = VECTOR('',#695,1.);
#695 = DIRECTION('',(-9.168293417531E-16,1.,5.598367746764E-31));
#696 = ORIENTED_EDGE('',*,*,#697,.F.);
#697 = EDGE_CURVE('',#624,#690,#698,.T.);
#698 = LINE('',#699,#700);
#699 = CARTESIAN_POINT('',(255.0000038743,64.000000953674,
    14.960593639107));
#700 = VECTOR('',#701,1.);
#701 = DIRECTION('',(0.,0.,-1.));
#702 = ORIENTED_EDGE('',*,*,#623,.F.);
#703 = ORIENTED_EDGE('',*,*,#537,.T.);
#704 = PLANE('',#705);
#705 = AXIS2_PLACEMENT_3D('',#706,#707,#708);
#706 = CARTESIAN_POINT('',(255.0000038743,64.000000953674,
    69.509335584721));
#707 = DIRECTION('',(-1.,-9.168293417531E-16,0.));
#708 = DIRECTION('',(-9.168293417531E-16,1.,0.));
#709 = ADVANCED_FACE('',(#710),#744,.T.);
#710 = FACE_BOUND('',#711,.T.);
#711 = EDGE_LOOP('',(#712,#722,#730,#738));
#712 = ORIENTED_EDGE('',*,*,#713,.F.);
#713 = EDGE_CURVE('',#714,#716,#718,.T.);
#714 = VERTEX_POINT('',#715);
#715 = CARTESIAN_POINT('',(260.,215.,-39.5881483065));
#716 = VERTEX_POINT('',#717);
#717 = CARTESIAN_POINT('',(260.,64.000000953674,-39.5881483065));
#718 = LINE('',#719,#720);
#719 = CARTESIAN_POINT('',(260.,215.,-39.5881483065));
#720 = VECTOR('',#721,1.);
#721 = DIRECTION('',(0.,-1.,0.));
#722 = ORIENTED_EDGE('',*,*,#723,.F.);
#723 = EDGE_CURVE('',#724,#714,#726,.T.);
#724 = VERTEX_POINT('',#725);
#725 = CARTESIAN_POINT('',(260.,215.,69.509335584721));
#726 = LINE('',#727,#728);
#727 = CARTESIAN_POINT('',(260.,215.,69.509335584721));
#728 = VECTOR('',#729,1.);
#729 = DIRECTION('',(0.,0.,-1.));
#730 = ORIENTED_EDGE('',*,*,#731,.F.);
#731 = EDGE_CURVE('',#732,#724,#734,.T.);
#732 = VERTEX_POINT('',#733);
#733 = CARTESIAN_POINT('',(260.,64.000000953674,69.509335584721));
#734 = LINE('',#735,#736);
#735 = CARTESIAN_POINT('',(260.,215.,69.509335584721));
#736 = VECTOR('',#737,1.);
#737 = DIRECTION('',(0.,1.,0.));
#738 = ORIENTED_EDGE('',*,*,#739,.F.);
#739 = EDGE_CURVE('',#716,#732,#740,.T.);
#740 = LINE('',#741,#742);
#741 = CARTESIAN_POINT('',(260.,64.000000953674,-39.5881483065));
#742 = VECTOR('',#743,1.);
#743 = DIRECTION('',(0.,0.,1.));
#744 = PLANE('',#745);
#745 = AXIS2_PLACEMENT_3D('',#746,#747,#748);
#746 = CARTESIAN_POINT('',(260.,215.,69.509335584721));
#747 = DIRECTION('',(1.,2.499549725714E-08,0.));
#748 = DIRECTION('',(2.499549725714E-08,-1.,0.));
#749 = ADVANCED_FACE('',(#750),#809,.T.);
#750 = FACE_BOUND('',#751,.T.);
#751 = EDGE_LOOP('',(#752,#753,#754,#762,#770,#778,#786,#794,#802,#808)
  );
#752 = ORIENTED_EDGE('',*,*,#739,.T.);
#753 = ORIENTED_EDGE('',*,*,#731,.T.);
#754 = ORIENTED_EDGE('',*,*,#755,.T.);
#755 = EDGE_CURVE('',#724,#756,#758,.T.);
#756 = VERTEX_POINT('',#757);
#757 = CARTESIAN_POINT('',(260.,215.,72.));
#758 = LINE('',#759,#760);
#759 = CARTESIAN_POINT('',(260.,215.,72.));
#760 = VECTOR('',#761,1.);
#761 = DIRECTION('',(0.,0.,1.));
#762 = ORIENTED_EDGE('',*,*,#763,.T.);
#763 = EDGE_CURVE('',#756,#764,#766,.T.);
#764 = VERTEX_POINT('',#765);
#765 = CARTESIAN_POINT('',(260.,64.000000953674,72.));
#766 = LINE('',#767,#768);
#767 = CARTESIAN_POINT('',(260.,60.,72.));
#768 = VECTOR('',#769,1.);
#769 = DIRECTION('',(6.876220023485E-16,-1.,0.));
#770 = ORIENTED_EDGE('',*,*,#771,.T.);
#771 = EDGE_CURVE('',#764,#772,#774,.T.);
#772 = VERTEX_POINT('',#773);
#773 = CARTESIAN_POINT('',(260.,64.000000953674,72.001851693492));
#774 = LINE('',#775,#776);
#775 = CARTESIAN_POINT('',(260.,64.000000953674,-39.5881483065));
#776 = VECTOR('',#777,1.);
#777 = DIRECTION('',(0.,0.,1.));
#778 = ORIENTED_EDGE('',*,*,#779,.F.);
#779 = EDGE_CURVE('',#780,#772,#782,.T.);
#780 = VERTEX_POINT('',#781);
#781 = CARTESIAN_POINT('',(260.,60.,72.001851693492));
#782 = LINE('',#783,#784);
#783 = CARTESIAN_POINT('',(260.,64.000000953674,72.001851693492));
#784 = VECTOR('',#785,1.);
#785 = DIRECTION('',(0.,1.,0.));
#786 = ORIENTED_EDGE('',*,*,#787,.F.);
#787 = EDGE_CURVE('',#788,#780,#790,.T.);
#788 = VERTEX_POINT('',#789);
#789 = CARTESIAN_POINT('',(260.,60.,-45.84100484906));
#790 = LINE('',#791,#792);
#791 = CARTESIAN_POINT('',(260.,60.,-39.5881483065));
#792 = VECTOR('',#793,1.);
#793 = DIRECTION('',(0.,0.,1.));
#794 = ORIENTED_EDGE('',*,*,#795,.T.);
#795 = EDGE_CURVE('',#788,#796,#798,.T.);
#796 = VERTEX_POINT('',#797);
#797 = CARTESIAN_POINT('',(260.,215.,-45.84100484906));
#798 = LINE('',#799,#800);
#799 = CARTESIAN_POINT('',(260.,215.,-45.84100484906));
#800 = VECTOR('',#801,1.);
#801 = DIRECTION('',(-2.292073341162E-16,1.,0.));
#802 = ORIENTED_EDGE('',*,*,#803,.T.);
#803 = EDGE_CURVE('',#796,#714,#804,.T.);
#804 = LINE('',#805,#806);
#805 = CARTESIAN_POINT('',(260.,215.,72.));
#806 = VECTOR('',#807,1.);
#807 = DIRECTION('',(0.,0.,1.));
#808 = ORIENTED_EDGE('',*,*,#713,.T.);
#809 = PLANE('',#810);
#810 = AXIS2_PLACEMENT_3D('',#811,#812,#813);
#811 = CARTESIAN_POINT('',(260.,137.5,-42.71457657778));
#812 = DIRECTION('',(1.,4.440892098501E-16,-6.106226635438E-16));
#813 = DIRECTION('',(-6.106226635438E-16,0.,-1.));
#814 = ADVANCED_FACE('',(#815),#826,.T.);
#815 = FACE_BOUND('',#816,.T.);
#816 = EDGE_LOOP('',(#817,#818,#824,#825));
#817 = ORIENTED_EDGE('',*,*,#697,.T.);
#818 = ORIENTED_EDGE('',*,*,#819,.F.);
#819 = EDGE_CURVE('',#593,#690,#820,.T.);
#820 = LINE('',#821,#822);
#821 = CARTESIAN_POINT('',(220.,64.000000953674,-39.5881483065));
#822 = VECTOR('',#823,1.);
#823 = DIRECTION('',(1.,0.,-6.106226635438E-16));
#824 = ORIENTED_EDGE('',*,*,#592,.F.);
#825 = ORIENTED_EDGE('',*,*,#631,.F.);
#826 = PLANE('',#827);
#827 = AXIS2_PLACEMENT_3D('',#828,#829,#830);
#828 = CARTESIAN_POINT('',(260.,64.000000953674,-39.5881483065));
#829 = DIRECTION('',(0.,1.,0.));
#830 = DIRECTION('',(-1.,0.,0.));
#831 = ADVANCED_FACE('',(#832),#866,.T.);
#832 = FACE_BOUND('',#833,.T.);
#833 = EDGE_LOOP('',(#834,#844,#852,#860));
#834 = ORIENTED_EDGE('',*,*,#835,.F.);
#835 = EDGE_CURVE('',#836,#838,#840,.T.);
#836 = VERTEX_POINT('',#837);
#837 = CARTESIAN_POINT('',(180.,60.,72.));
#838 = VERTEX_POINT('',#839);
#839 = CARTESIAN_POINT('',(180.,64.000000953674,72.));
#840 = LINE('',#841,#842);
#841 = CARTESIAN_POINT('',(180.,62.000000476837,72.));
#842 = VECTOR('',#843,1.);
#843 = DIRECTION('',(0.,1.,0.));
#844 = ORIENTED_EDGE('',*,*,#845,.T.);
#845 = EDGE_CURVE('',#836,#846,#848,.T.);
#846 = VERTEX_POINT('',#847);
#847 = CARTESIAN_POINT('',(180.,60.,72.001851693492));
#848 = LINE('',#849,#850);
#849 = CARTESIAN_POINT('',(180.,60.,-39.5881483065));
#850 = VECTOR('',#851,1.);
#851 = DIRECTION('',(0.,0.,1.));
#852 = ORIENTED_EDGE('',*,*,#853,.F.);
#853 = EDGE_CURVE('',#854,#846,#856,.T.);
#854 = VERTEX_POINT('',#855);
#855 = CARTESIAN_POINT('',(180.,64.000000953674,72.001851693492));
#856 = LINE('',#857,#858);
#857 = CARTESIAN_POINT('',(180.,215.,72.001851693492));
#858 = VECTOR('',#859,1.);
#859 = DIRECTION('',(0.,-1.,0.));
#860 = ORIENTED_EDGE('',*,*,#861,.F.);
#861 = EDGE_CURVE('',#838,#854,#862,.T.);
#862 = LINE('',#863,#864);
#863 = CARTESIAN_POINT('',(180.,64.000000953674,-39.5881483065));
#864 = VECTOR('',#865,1.);
#865 = DIRECTION('',(0.,0.,1.));
#866 = PLANE('',#867);
#867 = AXIS2_PLACEMENT_3D('',#868,#869,#870);
#868 = CARTESIAN_POINT('',(180.,64.000000953674,-39.5881483065));
#869 = DIRECTION('',(-1.,0.,0.));
#870 = DIRECTION('',(0.,-1.,0.));
#871 = ADVANCED_FACE('',(#872),#888,.T.);
#872 = FACE_BOUND('',#873,.T.);
#873 = EDGE_LOOP('',(#874,#880,#881,#887));
#874 = ORIENTED_EDGE('',*,*,#875,.F.);
#875 = EDGE_CURVE('',#838,#764,#876,.T.);
#876 = LINE('',#877,#878);
#877 = CARTESIAN_POINT('',(220.,64.000000953674,72.));
#878 = VECTOR('',#879,1.);
#879 = DIRECTION('',(1.,0.,0.));
#880 = ORIENTED_EDGE('',*,*,#861,.T.);
#881 = ORIENTED_EDGE('',*,*,#882,.F.);
#882 = EDGE_CURVE('',#772,#854,#883,.T.);
#883 = LINE('',#884,#885);
#884 = CARTESIAN_POINT('',(175.0000026077,64.000000953674,
    72.001851693492));
#885 = VECTOR('',#886,1.);
#886 = DIRECTION('',(-1.,0.,0.));
#887 = ORIENTED_EDGE('',*,*,#771,.F.);
#888 = PLANE('',#889);
#889 = AXIS2_PLACEMENT_3D('',#890,#891,#892);
#890 = CARTESIAN_POINT('',(260.,64.000000953674,-39.5881483065));
#891 = DIRECTION('',(0.,1.,0.));
#892 = DIRECTION('',(-1.,0.,0.));
#893 = ADVANCED_FACE('',(#894),#905,.T.);
#894 = FACE_BOUND('',#895,.T.);
#895 = EDGE_LOOP('',(#896,#897,#903,#904));
#896 = ORIENTED_EDGE('',*,*,#853,.T.);
#897 = ORIENTED_EDGE('',*,*,#898,.T.);
#898 = EDGE_CURVE('',#846,#780,#899,.T.);
#899 = LINE('',#900,#901);
#900 = CARTESIAN_POINT('',(260.,60.,72.001851693492));
#901 = VECTOR('',#902,1.);
#902 = DIRECTION('',(1.,4.179663279757E-16,0.));
#903 = ORIENTED_EDGE('',*,*,#779,.T.);
#904 = ORIENTED_EDGE('',*,*,#882,.T.);
#905 = PLANE('',#906);
#906 = AXIS2_PLACEMENT_3D('',#907,#908,#909);
#907 = CARTESIAN_POINT('',(220.,62.000000476837,72.001851693492));
#908 = DIRECTION('',(0.,0.,1.));
#909 = DIRECTION('',(1.,0.,-0.));
#910 = ADVANCED_FACE('',(#911),#938,.F.);
#911 = FACE_BOUND('',#912,.F.);
#912 = EDGE_LOOP('',(#913,#923,#930,#931));
#913 = ORIENTED_EDGE('',*,*,#914,.T.);
#914 = EDGE_CURVE('',#915,#917,#919,.T.);
#915 = VERTEX_POINT('',#916);
#916 = CARTESIAN_POINT('',(248.45000357627,115.00000171363,
    -45.84100484906));
#917 = VERTEX_POINT('',#918);
#918 = CARTESIAN_POINT('',(248.45000357627,115.00000171363,
    -39.5881483065));
#919 = LINE('',#920,#921);
#920 = CARTESIAN_POINT('',(248.45000357627,115.00000171363,
    -45.84100484906));
#921 = VECTOR('',#922,1.);
#922 = DIRECTION('',(0.,0.,1.));
#923 = ORIENTED_EDGE('',*,*,#924,.T.);
#924 = EDGE_CURVE('',#917,#917,#925,.T.);
#925 = CIRCLE('',#926,8.45);
#926 = AXIS2_PLACEMENT_3D('',#927,#928,#929);
#927 = CARTESIAN_POINT('',(240.00000357627,115.00000171363,
    -39.5881483065));
#928 = DIRECTION('',(-6.106226635438E-16,0.,-1.));
#929 = DIRECTION('',(-1.,0.,6.106226635438E-16));
#930 = ORIENTED_EDGE('',*,*,#914,.F.);
#931 = ORIENTED_EDGE('',*,*,#932,.T.);
#932 = EDGE_CURVE('',#915,#915,#933,.T.);
#933 = CIRCLE('',#934,8.45);
#934 = AXIS2_PLACEMENT_3D('',#935,#936,#937);
#935 = CARTESIAN_POINT('',(240.00000357627,115.00000171363,
    -45.84100484906));
#936 = DIRECTION('',(0.,0.,1.));
#937 = DIRECTION('',(-1.,0.,0.));
#938 = CYLINDRICAL_SURFACE('',#939,8.45);
#939 = AXIS2_PLACEMENT_3D('',#940,#941,#942);
#940 = CARTESIAN_POINT('',(240.00000357627,115.00000171363,
    -45.84100484906));
#941 = DIRECTION('',(0.,0.,1.));
#942 = DIRECTION('',(-1.,0.,0.));
#943 = ADVANCED_FACE('',(#944),#971,.F.);
#944 = FACE_BOUND('',#945,.F.);
#945 = EDGE_LOOP('',(#946,#956,#963,#964));
#946 = ORIENTED_EDGE('',*,*,#947,.T.);
#947 = EDGE_CURVE('',#948,#950,#952,.T.);
#948 = VERTEX_POINT('',#949);
#949 = CARTESIAN_POINT('',(203.45000290572,115.00000171363,
    -45.84100484906));
#950 = VERTEX_POINT('',#951);
#951 = CARTESIAN_POINT('',(203.45000290572,115.00000171363,
    -39.5881483065));
#952 = LINE('',#953,#954);
#953 = CARTESIAN_POINT('',(203.45000290572,115.00000171363,
    -45.84100484906));
#954 = VECTOR('',#955,1.);
#955 = DIRECTION('',(0.,0.,1.));
#956 = ORIENTED_EDGE('',*,*,#957,.T.);
#957 = EDGE_CURVE('',#950,#950,#958,.T.);
#958 = CIRCLE('',#959,8.45);
#959 = AXIS2_PLACEMENT_3D('',#960,#961,#962);
#960 = CARTESIAN_POINT('',(195.00000290572,115.00000171363,
    -39.5881483065));
#961 = DIRECTION('',(-6.106226635438E-16,0.,-1.));
#962 = DIRECTION('',(-1.,0.,6.106226635438E-16));
#963 = ORIENTED_EDGE('',*,*,#947,.F.);
#964 = ORIENTED_EDGE('',*,*,#965,.T.);
#965 = EDGE_CURVE('',#948,#948,#966,.T.);
#966 = CIRCLE('',#967,8.45);
#967 = AXIS2_PLACEMENT_3D('',#968,#969,#970);
#968 = CARTESIAN_POINT('',(195.00000290572,115.00000171363,
    -45.84100484906));
#969 = DIRECTION('',(0.,0.,1.));
#970 = DIRECTION('',(-1.,0.,0.));
#971 = CYLINDRICAL_SURFACE('',#972,8.45);
#972 = AXIS2_PLACEMENT_3D('',#973,#974,#975);
#973 = CARTESIAN_POINT('',(195.00000290572,115.00000171363,
    -45.84100484906));
#974 = DIRECTION('',(0.,0.,1.));
#975 = DIRECTION('',(-1.,0.,0.));
#976 = ADVANCED_FACE('',(#977),#1002,.F.);
#977 = FACE_BOUND('',#978,.T.);
#978 = EDGE_LOOP('',(#979,#980,#988,#996));
#979 = ORIENTED_EDGE('',*,*,#658,.F.);
#980 = ORIENTED_EDGE('',*,*,#981,.F.);
#981 = EDGE_CURVE('',#982,#651,#984,.T.);
#982 = VERTEX_POINT('',#983);
#983 = CARTESIAN_POINT('',(186.09330715808,189.9071412312,72.));
#984 = LINE('',#985,#986);
#985 = CARTESIAN_POINT('',(186.09330715808,189.9071412312,72.));
#986 = VECTOR('',#987,1.);
#987 = DIRECTION('',(0.,0.,-1.));
#988 = ORIENTED_EDGE('',*,*,#989,.F.);
#989 = EDGE_CURVE('',#990,#982,#992,.T.);
#990 = VERTEX_POINT('',#991);
#991 = CARTESIAN_POINT('',(186.09330715808,177.22575764061,72.));
#992 = LINE('',#993,#994);
#993 = CARTESIAN_POINT('',(186.09330715808,118.6128788203,72.));
#994 = VECTOR('',#995,1.);
#995 = DIRECTION('',(0.,1.,0.));
#996 = ORIENTED_EDGE('',*,*,#997,.T.);
#997 = EDGE_CURVE('',#990,#659,#998,.T.);
#998 = LINE('',#999,#1000);
#999 = CARTESIAN_POINT('',(186.09330715808,177.22575764061,72.));
#1000 = VECTOR('',#1001,1.);
#1001 = DIRECTION('',(0.,0.,-1.));
#1002 = PLANE('',#1003);
#1003 = AXIS2_PLACEMENT_3D('',#1004,#1005,#1006);
#1004 = CARTESIAN_POINT('',(186.09330715808,177.22575764061,72.));
#1005 = DIRECTION('',(-1.,0.,0.));
#1006 = DIRECTION('',(0.,1.,0.));
#1007 = ADVANCED_FACE('',(#1008),#1026,.F.);
#1008 = FACE_BOUND('',#1009,.T.);
#1009 = EDGE_LOOP('',(#1010,#1011,#1012,#1020));
#1010 = ORIENTED_EDGE('',*,*,#666,.F.);
#1011 = ORIENTED_EDGE('',*,*,#997,.F.);
#1012 = ORIENTED_EDGE('',*,*,#1013,.F.);
#1013 = EDGE_CURVE('',#1014,#990,#1016,.T.);
#1014 = VERTEX_POINT('',#1015);
#1015 = CARTESIAN_POINT('',(195.09330729219,177.22575764061,72.));
#1016 = LINE('',#1017,#1018);
#1017 = CARTESIAN_POINT('',(187.54665364609,177.22575764061,72.));
#1018 = VECTOR('',#1019,1.);
#1019 = DIRECTION('',(-1.,0.,0.));
#1020 = ORIENTED_EDGE('',*,*,#1021,.T.);
#1021 = EDGE_CURVE('',#1014,#641,#1022,.T.);
#1022 = LINE('',#1023,#1024);
#1023 = CARTESIAN_POINT('',(195.09330729219,177.22575764061,72.));
#1024 = VECTOR('',#1025,1.);
#1025 = DIRECTION('',(0.,0.,-1.));
#1026 = PLANE('',#1027);
#1027 = AXIS2_PLACEMENT_3D('',#1028,#1029,#1030);
#1028 = CARTESIAN_POINT('',(195.09330729219,177.22575764061,72.));
#1029 = DIRECTION('',(0.,-1.,0.));
#1030 = DIRECTION('',(-1.,0.,0.));
#1031 = ADVANCED_FACE('',(#1032),#1050,.F.);
#1032 = FACE_BOUND('',#1033,.T.);
#1033 = EDGE_LOOP('',(#1034,#1035,#1036,#1044));
#1034 = ORIENTED_EDGE('',*,*,#640,.F.);
#1035 = ORIENTED_EDGE('',*,*,#1021,.F.);
#1036 = ORIENTED_EDGE('',*,*,#1037,.F.);
#1037 = EDGE_CURVE('',#1038,#1014,#1040,.T.);
#1038 = VERTEX_POINT('',#1039);
#1039 = CARTESIAN_POINT('',(195.09330729219,189.9071412312,72.));
#1040 = LINE('',#1041,#1042);
#1041 = CARTESIAN_POINT('',(195.09330729219,124.9535706156,72.));
#1042 = VECTOR('',#1043,1.);
#1043 = DIRECTION('',(0.,-1.,0.));
#1044 = ORIENTED_EDGE('',*,*,#1045,.T.);
#1045 = EDGE_CURVE('',#1038,#643,#1046,.T.);
#1046 = LINE('',#1047,#1048);
#1047 = CARTESIAN_POINT('',(195.09330729219,189.9071412312,72.));
#1048 = VECTOR('',#1049,1.);
#1049 = DIRECTION('',(0.,0.,-1.));
#1050 = PLANE('',#1051);
#1051 = AXIS2_PLACEMENT_3D('',#1052,#1053,#1054);
#1052 = CARTESIAN_POINT('',(195.09330729219,189.9071412312,72.));
#1053 = DIRECTION('',(1.,0.,0.));
#1054 = DIRECTION('',(0.,-1.,0.));
#1055 = ADVANCED_FACE('',(#1056),#1067,.F.);
#1056 = FACE_BOUND('',#1057,.T.);
#1057 = EDGE_LOOP('',(#1058,#1059,#1060,#1066));
#1058 = ORIENTED_EDGE('',*,*,#650,.F.);
#1059 = ORIENTED_EDGE('',*,*,#1045,.F.);
#1060 = ORIENTED_EDGE('',*,*,#1061,.F.);
#1061 = EDGE_CURVE('',#982,#1038,#1062,.T.);
#1062 = LINE('',#1063,#1064);
#1063 = CARTESIAN_POINT('',(183.04665357904,189.9071412312,72.));
#1064 = VECTOR('',#1065,1.);
#1065 = DIRECTION('',(1.,0.,0.));
#1066 = ORIENTED_EDGE('',*,*,#981,.T.);
#1067 = PLANE('',#1068);
#1068 = AXIS2_PLACEMENT_3D('',#1069,#1070,#1071);
#1069 = CARTESIAN_POINT('',(186.09330715808,189.9071412312,72.));
#1070 = DIRECTION('',(0.,1.,0.));
#1071 = DIRECTION('',(1.,0.,0.));
#1072 = ADVANCED_FACE('',(#1073),#1107,.F.);
#1073 = FACE_BOUND('',#1074,.T.);
#1074 = EDGE_LOOP('',(#1075,#1085,#1093,#1101));
#1075 = ORIENTED_EDGE('',*,*,#1076,.F.);
#1076 = EDGE_CURVE('',#1077,#1079,#1081,.T.);
#1077 = VERTEX_POINT('',#1078);
#1078 = CARTESIAN_POINT('',(192.9176844472,185.47047481692,
    -39.5881483065));
#1079 = VERTEX_POINT('',#1080);
#1080 = CARTESIAN_POINT('',(240.9176844472,185.47047481692,
    -39.5881483065));
#1081 = LINE('',#1082,#1083);
#1082 = CARTESIAN_POINT('',(210.4588422236,185.47047481692,
    -39.5881483065));
#1083 = VECTOR('',#1084,1.);
#1084 = DIRECTION('',(1.,0.,-6.106226635438E-16));
#1085 = ORIENTED_EDGE('',*,*,#1086,.F.);
#1086 = EDGE_CURVE('',#1087,#1077,#1089,.T.);
#1087 = VERTEX_POINT('',#1088);
#1088 = CARTESIAN_POINT('',(192.9176844472,185.47047481692,
    -45.84100484906));
#1089 = LINE('',#1090,#1091);
#1090 = CARTESIAN_POINT('',(192.9176844472,185.47047481692,
    -45.84100484906));
#1091 = VECTOR('',#1092,1.);
#1092 = DIRECTION('',(0.,0.,1.));
#1093 = ORIENTED_EDGE('',*,*,#1094,.F.);
#1094 = EDGE_CURVE('',#1095,#1087,#1097,.T.);
#1095 = VERTEX_POINT('',#1096);
#1096 = CARTESIAN_POINT('',(240.9176844472,185.47047481692,
    -45.84100484906));
#1097 = LINE('',#1098,#1099);
#1098 = CARTESIAN_POINT('',(210.4588422236,185.47047481692,
    -45.84100484906));
#1099 = VECTOR('',#1100,1.);
#1100 = DIRECTION('',(-1.,0.,0.));
#1101 = ORIENTED_EDGE('',*,*,#1102,.T.);
#1102 = EDGE_CURVE('',#1095,#1079,#1103,.T.);
#1103 = LINE('',#1104,#1105);
#1104 = CARTESIAN_POINT('',(240.9176844472,185.47047481692,
    -45.84100484906));
#1105 = VECTOR('',#1106,1.);
#1106 = DIRECTION('',(0.,0.,1.));
#1107 = PLANE('',#1108);
#1108 = AXIS2_PLACEMENT_3D('',#1109,#1110,#1111);
#1109 = CARTESIAN_POINT('',(240.9176844472,185.47047481692,
    -45.84100484906));
#1110 = DIRECTION('',(0.,1.,0.));
#1111 = DIRECTION('',(-1.,0.,0.));
#1112 = ADVANCED_FACE('',(#1113),#1138,.F.);
#1113 = FACE_BOUND('',#1114,.T.);
#1114 = EDGE_LOOP('',(#1115,#1123,#1124,#1132));
#1115 = ORIENTED_EDGE('',*,*,#1116,.F.);
#1116 = EDGE_CURVE('',#1079,#1117,#1119,.T.);
#1117 = VERTEX_POINT('',#1118);
#1118 = CARTESIAN_POINT('',(240.9176844472,156.47047481692,
    -39.5881483065));
#1119 = LINE('',#1120,#1121);
#1120 = CARTESIAN_POINT('',(240.9176844472,185.73523740846,
    -39.5881483065));
#1121 = VECTOR('',#1122,1.);
#1122 = DIRECTION('',(0.,-1.,0.));
#1123 = ORIENTED_EDGE('',*,*,#1102,.F.);
#1124 = ORIENTED_EDGE('',*,*,#1125,.F.);
#1125 = EDGE_CURVE('',#1126,#1095,#1128,.T.);
#1126 = VERTEX_POINT('',#1127);
#1127 = CARTESIAN_POINT('',(240.9176844472,156.47047481692,
    -45.84100484906));
#1128 = LINE('',#1129,#1130);
#1129 = CARTESIAN_POINT('',(240.9176844472,185.73523740846,
    -45.84100484906));
#1130 = VECTOR('',#1131,1.);
#1131 = DIRECTION('',(0.,1.,0.));
#1132 = ORIENTED_EDGE('',*,*,#1133,.T.);
#1133 = EDGE_CURVE('',#1126,#1117,#1134,.T.);
#1134 = LINE('',#1135,#1136);
#1135 = CARTESIAN_POINT('',(240.9176844472,156.47047481692,
    -45.84100484906));
#1136 = VECTOR('',#1137,1.);
#1137 = DIRECTION('',(0.,0.,1.));
#1138 = PLANE('',#1139);
#1139 = AXIS2_PLACEMENT_3D('',#1140,#1141,#1142);
#1140 = CARTESIAN_POINT('',(240.9176844472,156.47047481692,
    -45.84100484906));
#1141 = DIRECTION('',(1.,0.,0.));
#1142 = DIRECTION('',(-0.,1.,0.));
#1143 = ADVANCED_FACE('',(#1144),#1169,.F.);
#1144 = FACE_BOUND('',#1145,.T.);
#1145 = EDGE_LOOP('',(#1146,#1154,#1155,#1163));
#1146 = ORIENTED_EDGE('',*,*,#1147,.F.);
#1147 = EDGE_CURVE('',#1117,#1148,#1150,.T.);
#1148 = VERTEX_POINT('',#1149);
#1149 = CARTESIAN_POINT('',(192.9176844472,156.47047481692,
    -39.5881483065));
#1150 = LINE('',#1151,#1152);
#1151 = CARTESIAN_POINT('',(186.4588422236,156.47047481692,
    -39.5881483065));
#1152 = VECTOR('',#1153,1.);
#1153 = DIRECTION('',(-1.,0.,6.106226635438E-16));
#1154 = ORIENTED_EDGE('',*,*,#1133,.F.);
#1155 = ORIENTED_EDGE('',*,*,#1156,.F.);
#1156 = EDGE_CURVE('',#1157,#1126,#1159,.T.);
#1157 = VERTEX_POINT('',#1158);
#1158 = CARTESIAN_POINT('',(192.9176844472,156.47047481692,
    -45.84100484906));
#1159 = LINE('',#1160,#1161);
#1160 = CARTESIAN_POINT('',(186.4588422236,156.47047481692,
    -45.84100484906));
#1161 = VECTOR('',#1162,1.);
#1162 = DIRECTION('',(1.,0.,0.));
#1163 = ORIENTED_EDGE('',*,*,#1164,.T.);
#1164 = EDGE_CURVE('',#1157,#1148,#1165,.T.);
#1165 = LINE('',#1166,#1167);
#1166 = CARTESIAN_POINT('',(192.9176844472,156.47047481692,
    -45.84100484906));
#1167 = VECTOR('',#1168,1.);
#1168 = DIRECTION('',(0.,0.,1.));
#1169 = PLANE('',#1170);
#1170 = AXIS2_PLACEMENT_3D('',#1171,#1172,#1173);
#1171 = CARTESIAN_POINT('',(192.9176844472,156.47047481692,
    -45.84100484906));
#1172 = DIRECTION('',(0.,-1.,0.));
#1173 = DIRECTION('',(1.,0.,0.));
#1174 = ADVANCED_FACE('',(#1175),#1191,.F.);
#1175 = FACE_BOUND('',#1176,.T.);
#1176 = EDGE_LOOP('',(#1177,#1183,#1184,#1190));
#1177 = ORIENTED_EDGE('',*,*,#1178,.F.);
#1178 = EDGE_CURVE('',#1148,#1077,#1179,.T.);
#1179 = LINE('',#1180,#1181);
#1180 = CARTESIAN_POINT('',(192.9176844472,200.23523740846,
    -39.5881483065));
#1181 = VECTOR('',#1182,1.);
#1182 = DIRECTION('',(0.,1.,0.));
#1183 = ORIENTED_EDGE('',*,*,#1164,.F.);
#1184 = ORIENTED_EDGE('',*,*,#1185,.F.);
#1185 = EDGE_CURVE('',#1087,#1157,#1186,.T.);
#1186 = LINE('',#1187,#1188);
#1187 = CARTESIAN_POINT('',(192.9176844472,200.23523740846,
    -45.84100484906));
#1188 = VECTOR('',#1189,1.);
#1189 = DIRECTION('',(0.,-1.,0.));
#1190 = ORIENTED_EDGE('',*,*,#1086,.T.);
#1191 = PLANE('',#1192);
#1192 = AXIS2_PLACEMENT_3D('',#1193,#1194,#1195);
#1193 = CARTESIAN_POINT('',(192.9176844472,185.47047481692,
    -45.84100484906));
#1194 = DIRECTION('',(-1.,0.,0.));
#1195 = DIRECTION('',(0.,-1.,0.));
#1196 = ADVANCED_FACE('',(#1197,#1208,#1211,#1214),#1220,.T.);
#1197 = FACE_BOUND('',#1198,.T.);
#1198 = EDGE_LOOP('',(#1199,#1200,#1206,#1207));
#1199 = ORIENTED_EDGE('',*,*,#689,.T.);
#1200 = ORIENTED_EDGE('',*,*,#1201,.F.);
#1201 = EDGE_CURVE('',#601,#682,#1202,.T.);
#1202 = LINE('',#1203,#1204);
#1203 = CARTESIAN_POINT('',(180.,215.,-39.5881483065));
#1204 = VECTOR('',#1205,1.);
#1205 = DIRECTION('',(1.,4.440892098501E-16,-6.106226635438E-16));
#1206 = ORIENTED_EDGE('',*,*,#600,.F.);
#1207 = ORIENTED_EDGE('',*,*,#819,.T.);
#1208 = FACE_BOUND('',#1209,.T.);
#1209 = EDGE_LOOP('',(#1210));
#1210 = ORIENTED_EDGE('',*,*,#924,.T.);
#1211 = FACE_BOUND('',#1212,.T.);
#1212 = EDGE_LOOP('',(#1213));
#1213 = ORIENTED_EDGE('',*,*,#957,.T.);
#1214 = FACE_BOUND('',#1215,.T.);
#1215 = EDGE_LOOP('',(#1216,#1217,#1218,#1219));
#1216 = ORIENTED_EDGE('',*,*,#1147,.T.);
#1217 = ORIENTED_EDGE('',*,*,#1178,.T.);
#1218 = ORIENTED_EDGE('',*,*,#1076,.T.);
#1219 = ORIENTED_EDGE('',*,*,#1116,.T.);
#1220 = PLANE('',#1221);
#1221 = AXIS2_PLACEMENT_3D('',#1222,#1223,#1224);
#1222 = CARTESIAN_POINT('',(180.,215.,-39.5881483065));
#1223 = DIRECTION('',(6.106226635438E-16,0.,1.));
#1224 = DIRECTION('',(0.,-1.,0.));
#1225 = ADVANCED_FACE('',(#1226,#1253),#1259,.T.);
#1226 = FACE_BOUND('',#1227,.T.);
#1227 = EDGE_LOOP('',(#1228,#1229,#1230,#1238,#1246,#1252));
#1228 = ORIENTED_EDGE('',*,*,#875,.T.);
#1229 = ORIENTED_EDGE('',*,*,#763,.F.);
#1230 = ORIENTED_EDGE('',*,*,#1231,.F.);
#1231 = EDGE_CURVE('',#1232,#756,#1234,.T.);
#1232 = VERTEX_POINT('',#1233);
#1233 = CARTESIAN_POINT('',(175.,215.,72.));
#1234 = LINE('',#1235,#1236);
#1235 = CARTESIAN_POINT('',(180.,215.,72.));
#1236 = VECTOR('',#1237,1.);
#1237 = DIRECTION('',(1.,8.881784197001E-16,-6.661338147751E-16));
#1238 = ORIENTED_EDGE('',*,*,#1239,.F.);
#1239 = EDGE_CURVE('',#1240,#1232,#1242,.T.);
#1240 = VERTEX_POINT('',#1241);
#1241 = CARTESIAN_POINT('',(175.,60.,72.));
#1242 = LINE('',#1243,#1244);
#1243 = CARTESIAN_POINT('',(175.,60.,72.));
#1244 = VECTOR('',#1245,1.);
#1245 = DIRECTION('',(-6.876220023485E-16,1.,0.));
#1246 = ORIENTED_EDGE('',*,*,#1247,.T.);
#1247 = EDGE_CURVE('',#1240,#836,#1248,.T.);
#1248 = LINE('',#1249,#1250);
#1249 = CARTESIAN_POINT('',(180.,60.,72.));
#1250 = VECTOR('',#1251,1.);
#1251 = DIRECTION('',(1.,8.881784197001E-16,-6.661338147751E-16));
#1252 = ORIENTED_EDGE('',*,*,#835,.T.);
#1253 = FACE_BOUND('',#1254,.T.);
#1254 = EDGE_LOOP('',(#1255,#1256,#1257,#1258));
#1255 = ORIENTED_EDGE('',*,*,#1037,.T.);
#1256 = ORIENTED_EDGE('',*,*,#1013,.T.);
#1257 = ORIENTED_EDGE('',*,*,#989,.T.);
#1258 = ORIENTED_EDGE('',*,*,#1061,.T.);
#1259 = PLANE('',#1260);
#1260 = AXIS2_PLACEMENT_3D('',#1261,#1262,#1263);
#1261 = CARTESIAN_POINT('',(180.,60.,72.));
#1262 = DIRECTION('',(0.,0.,1.));
#1263 = DIRECTION('',(-6.876220023485E-16,1.,0.));
#1264 = ADVANCED_FACE('',(#1265),#1285,.T.);
#1265 = FACE_BOUND('',#1266,.T.);
#1266 = EDGE_LOOP('',(#1267,#1268,#1276,#1282,#1283,#1284));
#1267 = ORIENTED_EDGE('',*,*,#1247,.F.);
#1268 = ORIENTED_EDGE('',*,*,#1269,.F.);
#1269 = EDGE_CURVE('',#1270,#1240,#1272,.T.);
#1270 = VERTEX_POINT('',#1271);
#1271 = CARTESIAN_POINT('',(175.,60.,-45.84100484906));
#1272 = LINE('',#1273,#1274);
#1273 = CARTESIAN_POINT('',(175.,60.,-45.84100484906));
#1274 = VECTOR('',#1275,1.);
#1275 = DIRECTION('',(6.029673089348E-16,3.768545680842E-16,1.));
#1276 = ORIENTED_EDGE('',*,*,#1277,.T.);
#1277 = EDGE_CURVE('',#1270,#788,#1278,.T.);
#1278 = LINE('',#1279,#1280);
#1279 = CARTESIAN_POINT('',(180.,60.,-45.84100484906));
#1280 = VECTOR('',#1281,1.);
#1281 = DIRECTION('',(1.,4.440892098501E-16,-6.106226635438E-16));
#1282 = ORIENTED_EDGE('',*,*,#787,.T.);
#1283 = ORIENTED_EDGE('',*,*,#898,.F.);
#1284 = ORIENTED_EDGE('',*,*,#845,.F.);
#1285 = PLANE('',#1286);
#1286 = AXIS2_PLACEMENT_3D('',#1287,#1288,#1289);
#1287 = CARTESIAN_POINT('',(180.,60.,-45.84100484906));
#1288 = DIRECTION('',(0.,-1.,3.768545680842E-16));
#1289 = DIRECTION('',(6.029673089348E-16,3.768545680842E-16,1.));
#1290 = ADVANCED_FACE('',(#1291,#1309,#1315,#1318,#1321,#1324,#1327,
    #1330),#1333,.T.);
#1291 = FACE_BOUND('',#1292,.T.);
#1292 = EDGE_LOOP('',(#1293,#1294,#1302,#1308));
#1293 = ORIENTED_EDGE('',*,*,#1277,.F.);
#1294 = ORIENTED_EDGE('',*,*,#1295,.F.);
#1295 = EDGE_CURVE('',#1296,#1270,#1298,.T.);
#1296 = VERTEX_POINT('',#1297);
#1297 = CARTESIAN_POINT('',(175.,215.,-45.84100484906));
#1298 = LINE('',#1299,#1300);
#1299 = CARTESIAN_POINT('',(175.,215.,-45.84100484906));
#1300 = VECTOR('',#1301,1.);
#1301 = DIRECTION('',(2.292073341162E-16,-1.,0.));
#1302 = ORIENTED_EDGE('',*,*,#1303,.F.);
#1303 = EDGE_CURVE('',#796,#1296,#1304,.T.);
#1304 = LINE('',#1305,#1306);
#1305 = CARTESIAN_POINT('',(180.,215.,-45.84100484906));
#1306 = VECTOR('',#1307,1.);
#1307 = DIRECTION('',(-1.,0.,0.));
#1308 = ORIENTED_EDGE('',*,*,#795,.F.);
#1309 = FACE_BOUND('',#1310,.T.);
#1310 = EDGE_LOOP('',(#1311,#1312,#1313,#1314));
#1311 = ORIENTED_EDGE('',*,*,#1156,.T.);
#1312 = ORIENTED_EDGE('',*,*,#1125,.T.);
#1313 = ORIENTED_EDGE('',*,*,#1094,.T.);
#1314 = ORIENTED_EDGE('',*,*,#1185,.T.);
#1315 = FACE_BOUND('',#1316,.T.);
#1316 = EDGE_LOOP('',(#1317));
#1317 = ORIENTED_EDGE('',*,*,#965,.T.);
#1318 = FACE_BOUND('',#1319,.T.);
#1319 = EDGE_LOOP('',(#1320));
#1320 = ORIENTED_EDGE('',*,*,#932,.T.);
#1321 = FACE_BOUND('',#1322,.T.);
#1322 = EDGE_LOOP('',(#1323));
#1323 = ORIENTED_EDGE('',*,*,#487,.T.);
#1324 = FACE_BOUND('',#1325,.T.);
#1325 = EDGE_LOOP('',(#1326));
#1326 = ORIENTED_EDGE('',*,*,#445,.T.);
#1327 = FACE_BOUND('',#1328,.T.);
#1328 = EDGE_LOOP('',(#1329));
#1329 = ORIENTED_EDGE('',*,*,#403,.T.);
#1330 = FACE_BOUND('',#1331,.T.);
#1331 = EDGE_LOOP('',(#1332));
#1332 = ORIENTED_EDGE('',*,*,#361,.T.);
#1333 = PLANE('',#1334);
#1334 = AXIS2_PLACEMENT_3D('',#1335,#1336,#1337);
#1335 = CARTESIAN_POINT('',(180.,215.,-45.84100484906));
#1336 = DIRECTION('',(0.,0.,-1.));
#1337 = DIRECTION('',(2.292073341162E-16,-1.,0.));
#1338 = ADVANCED_FACE('',(#1339,#1352),#1358,.T.);
#1339 = FACE_BOUND('',#1340,.T.);
#1340 = EDGE_LOOP('',(#1341,#1342,#1343,#1349,#1350,#1351));
#1341 = ORIENTED_EDGE('',*,*,#803,.F.);
#1342 = ORIENTED_EDGE('',*,*,#1303,.T.);
#1343 = ORIENTED_EDGE('',*,*,#1344,.F.);
#1344 = EDGE_CURVE('',#1232,#1296,#1345,.T.);
#1345 = LINE('',#1346,#1347);
#1346 = CARTESIAN_POINT('',(175.,215.,72.));
#1347 = VECTOR('',#1348,1.);
#1348 = DIRECTION('',(0.,0.,-1.));
#1349 = ORIENTED_EDGE('',*,*,#1231,.T.);
#1350 = ORIENTED_EDGE('',*,*,#755,.F.);
#1351 = ORIENTED_EDGE('',*,*,#723,.T.);
#1352 = FACE_BOUND('',#1353,.T.);
#1353 = EDGE_LOOP('',(#1354,#1355,#1356,#1357));
#1354 = ORIENTED_EDGE('',*,*,#560,.F.);
#1355 = ORIENTED_EDGE('',*,*,#608,.T.);
#1356 = ORIENTED_EDGE('',*,*,#1201,.T.);
#1357 = ORIENTED_EDGE('',*,*,#681,.F.);
#1358 = PLANE('',#1359);
#1359 = AXIS2_PLACEMENT_3D('',#1360,#1361,#1362);
#1360 = CARTESIAN_POINT('',(180.,215.,72.));
#1361 = DIRECTION('',(0.,1.,0.));
#1362 = DIRECTION('',(0.,0.,-1.));
#1363 = ADVANCED_FACE('',(#1364),#1370,.T.);
#1364 = FACE_BOUND('',#1365,.T.);
#1365 = EDGE_LOOP('',(#1366,#1367,#1368,#1369));
#1366 = ORIENTED_EDGE('',*,*,#1344,.T.);
#1367 = ORIENTED_EDGE('',*,*,#1295,.T.);
#1368 = ORIENTED_EDGE('',*,*,#1269,.T.);
#1369 = ORIENTED_EDGE('',*,*,#1239,.T.);
#1370 = PLANE('',#1371);
#1371 = AXIS2_PLACEMENT_3D('',#1372,#1373,#1374);
#1372 = CARTESIAN_POINT('',(175.,137.5,13.079497575468));
#1373 = DIRECTION('',(-1.,0.,0.));
#1374 = DIRECTION('',(0.,0.,1.));
#1375 = ( GEOMETRIC_REPRESENTATION_CONTEXT(3) 
GLOBAL_UNCERTAINTY_ASSIGNED_CONTEXT((#1379)) 
GLOBAL_UNIT_ASSIGNED_CONTEXT((#1376,#1377,#1378)) REPRESENTATION_CONTEXT
('Context #1','3D Context with UNIT and UNCERTAINTY') );
#1376 = ( LENGTH_UNIT() NAMED_UNIT(*) SI_UNIT(.MILLI.,.METRE.) );
#1377 = ( NAMED_UNIT(*) PLANE_ANGLE_UNIT() SI_UNIT($,.RADIAN.) );
#1378 = ( NAMED_UNIT(*) SI_UNIT($,.STERADIAN.) SOLID_ANGLE_UNIT() );
#1379 = UNCERTAINTY_MEASURE_WITH_UNIT(LENGTH_MEASURE(2.E-07),#1376,
  'distance_accuracy_value','confusion accuracy');
#1380 = CONTEXT_DEPENDENT_SHAPE_REPRESENTATION(#1381,#1383);
#1381 = ( REPRESENTATION_RELATIONSHIP('','',#336,#10) 
REPRESENTATION_RELATIONSHIP_WITH_TRANSFORMATION(#1382) 
SHAPE_REPRESENTATION_RELATIONSHIP() );
#1382 = ITEM_DEFINED_TRANSFORMATION('','',#11,#31);
#1383 = PRODUCT_DEFINITION_SHAPE('Placement','Placement of an item',
  #1384);
#1384 = NEXT_ASSEMBLY_USAGE_OCCURRENCE('5','COMPOUND004','',#5,#331,$);
#1385 = PRODUCT_RELATED_PRODUCT_CATEGORY('part',$,(#333));
#1386 = MECHANICAL_DESIGN_GEOMETRIC_PRESENTATION_REPRESENTATION('',(
    #1387),#246);
#1387 = STYLED_ITEM('color',(#1388),#193);
#1388 = PRESENTATION_STYLE_ASSIGNMENT((#1389,#1395));
#1389 = SURFACE_STYLE_USAGE(.BOTH.,#1390);
#1390 = SURFACE_SIDE_STYLE('',(#1391));
#1391 = SURFACE_STYLE_FILL_AREA(#1392);
#1392 = FILL_AREA_STYLE('',(#1393));
#1393 = FILL_AREA_STYLE_COLOUR('',#1394);
#1394 = COLOUR_RGB('',0.627451011593,0.627451011593,0.627451011593);
#1395 = CURVE_STYLE('',#1396,POSITIVE_LENGTH_MEASURE(0.1),#1397);
#1396 = DRAUGHTING_PRE_DEFINED_CURVE_FONT('continuous');
#1397 = COLOUR_RGB('',9.803921802644E-02,9.803921802644E-02,
  9.803921802644E-02);
#1398 = MECHANICAL_DESIGN_GEOMETRIC_PRESENTATION_REPRESENTATION('',(
    #1399),#1375);
#1399 = STYLED_ITEM('color',(#1400),#337);
#1400 = PRESENTATION_STYLE_ASSIGNMENT((#1401,#1406));
#1401 = SURFACE_STYLE_USAGE(.BOTH.,#1402);
#1402 = SURFACE_SIDE_STYLE('',(#1403));
#1403 = SURFACE_STYLE_FILL_AREA(#1404);
#1404 = FILL_AREA_STYLE('',(#1405));
#1405 = FILL_AREA_STYLE_COLOUR('',#1394);
#1406 = CURVE_STYLE('',#1407,POSITIVE_LENGTH_MEASURE(0.1),#1397);
#1407 = DRAUGHTING_PRE_DEFINED_CURVE_FONT('continuous');
#1408 = MECHANICAL_DESIGN_GEOMETRIC_PRESENTATION_REPRESENTATION('',(
    #1409),#318);
#1409 = STYLED_ITEM('color',(#1410),#265);
#1410 = PRESENTATION_STYLE_ASSIGNMENT((#1411,#1416));
#1411 = SURFACE_STYLE_USAGE(.BOTH.,#1412);
#1412 = SURFACE_SIDE_STYLE('',(#1413));
#1413 = SURFACE_STYLE_FILL_AREA(#1414);
#1414 = FILL_AREA_STYLE('',(#1415));
#1415 = FILL_AREA_STYLE_COLOUR('',#1394);
#1416 = CURVE_STYLE('',#1417,POSITIVE_LENGTH_MEASURE(0.1),#1397);
#1417 = DRAUGHTING_PRE_DEFINED_CURVE_FONT('continuous');
#1418 = MECHANICAL_DESIGN_GEOMETRIC_PRESENTATION_REPRESENTATION('',(
    #1419),#174);
#1419 = STYLED_ITEM('color',(#1420),#121);
#1420 = PRESENTATION_STYLE_ASSIGNMENT((#1421,#1426));
#1421 = SURFACE_STYLE_USAGE(.BOTH.,#1422);
#1422 = SURFACE_SIDE_STYLE('',(#1423));
#1423 = SURFACE_STYLE_FILL_AREA(#1424);
#1424 = FILL_AREA_STYLE('',(#1425));
#1425 = FILL_AREA_STYLE_COLOUR('',#1394);
#1426 = CURVE_STYLE('',#1427,POSITIVE_LENGTH_MEASURE(0.1),#1397);
#1427 = DRAUGHTING_PRE_DEFINED_CURVE_FONT('continuous');
#1428 = MECHANICAL_DESIGN_GEOMETRIC_PRESENTATION_REPRESENTATION('',(
    #1429),#102);
#1429 = STYLED_ITEM('color',(#1430),#49);
#1430 = PRESENTATION_STYLE_ASSIGNMENT((#1431,#1436));
#1431 = SURFACE_STYLE_USAGE(.BOTH.,#1432);
#1432 = SURFACE_SIDE_STYLE('',(#1433));
#1433 = SURFACE_STYLE_FILL_AREA(#1434);
#1434 = FILL_AREA_STYLE('',(#1435));
#1435 = FILL_AREA_STYLE_COLOUR('',#1394);
#1436 = CURVE_STYLE('',#1437,POSITIVE_LENGTH_MEASURE(0.1),#1397);
#1437 = DRAUGHTING_PRE_DEFINED_CURVE_FONT('continuous');
ENDSEC;
END-ISO-10303-21;
